<?xml version="1.0" standalone="no"?>
<!DOCTYPE svg PUBLIC "-//W3C//DTD SVG 20010904//EN"
 "http://www.w3.org/TR/2001/REC-SVG-20010904/DTD/svg10.dtd">
<svg version="1.0" xmlns="http://www.w3.org/2000/svg"
 width="2048.000000pt" height="2048.000000pt" viewBox="0 0 2048.000000 2048.000000"
 preserveAspectRatio="xMidYMid meet">
<metadata>
Created by potrace 1.11, written by Peter Selinger 2001-2013
</metadata>
<g transform="translate(0.000000,2048.000000) scale(0.100000,-0.100000)"
fill="#000000" stroke="none">
<path d="M12941 20424 c-32 -24 -64 -44 -70 -44 -6 0 -11 -7 -11 -15 0 -8 -6
-15 -13 -15 -7 0 -26 -13 -42 -30 -16 -16 -35 -30 -42 -30 -7 0 -13 -4 -13
-10 0 -5 -18 -21 -41 -35 -25 -16 -46 -40 -56 -63 -15 -36 -15 -36 19 -67 64
-56 88 -75 98 -75 5 0 15 -9 22 -20 7 -11 17 -20 22 -20 12 0 92 -58 125 -91
39 -39 99 -168 87 -188 -4 -5 -2 -12 4 -16 5 -3 10 -26 10 -50 0 -24 5 -47 10
-50 6 -3 10 -51 10 -109 0 -124 -3 -128 -109 -149 -51 -11 -77 -22 -88 -36
-18 -26 -55 -29 -51 -4 3 14 -4 17 -42 15 -61 -4 -94 -10 -165 -32 -33 -10
-87 -21 -119 -25 -33 -4 -65 -9 -72 -12 -21 -8 -8 -40 35 -85 23 -23 41 -47
41 -54 0 -12 78 -130 113 -170 11 -13 76 -51 144 -85 120 -61 126 -62 210 -65
124 -3 126 -5 136 -192 4 -81 7 -156 8 -166 1 -47 -102 -106 -185 -106 -23 0
-39 -9 -62 -37 l-31 -37 -129 -8 c-71 -5 -160 -13 -199 -19 -38 -7 -95 -15
-125 -20 -191 -28 -263 -40 -325 -54 -38 -9 -88 -20 -110 -25 -90 -20 -228
-22 -324 -5 -52 9 -108 22 -125 28 -17 7 -42 11 -55 9 -23 -4 -24 -5 -18 -85
5 -73 30 -174 46 -187 11 -9 51 -69 51 -76 0 -4 21 -27 48 -51 54 -50 183
-119 260 -139 80 -21 223 -18 275 5 23 11 75 22 115 25 64 5 144 32 162 55 11
14 52 31 60 26 20 -12 133 19 207 56 82 43 137 50 178 23 29 -19 25 -32 -44
-148 -27 -45 -78 -135 -113 -201 -94 -173 -115 -211 -174 -300 -29 -44 -74
-125 -101 -180 l-48 -100 0 -130 c0 -232 36 -330 145 -388 40 -22 63 -28 90
-24 76 10 162 68 283 189 97 98 138 120 231 122 98 1 158 -5 176 -19 8 -7 31
-16 50 -20 37 -7 118 -34 135 -45 6 -4 25 -7 44 -9 19 -1 41 -7 49 -13 19 -17
84 -38 94 -32 4 3 8 0 8 -5 0 -6 6 -11 14 -11 8 0 16 -4 18 -9 5 -15 247 -18
256 -4 4 6 20 15 35 18 15 4 27 11 27 16 0 5 18 9 40 9 46 0 150 53 194 99 16
17 33 28 38 25 5 -3 12 3 15 15 3 12 12 21 19 21 8 0 14 6 14 13 0 7 18 31 40
52 30 29 40 47 40 70 0 17 5 36 12 43 7 7 9 12 5 12 -4 0 0 14 9 31 17 34 27
99 14 99 -4 0 -10 22 -12 49 -4 41 -11 54 -41 81 -35 31 -49 71 -28 84 4 3 11
28 13 55 3 33 12 56 25 68 37 33 81 98 133 196 52 98 67 159 46 184 -6 7 -29
35 -51 62 -22 27 -51 55 -65 64 -14 9 -42 31 -61 49 -57 53 -79 61 -163 56
-70 -3 -78 -6 -113 -38 -21 -20 -54 -44 -73 -54 -19 -10 -45 -28 -58 -40 -13
-12 -27 -20 -30 -18 -4 1 -7 -4 -7 -10 0 -12 -85 -59 -186 -102 -24 -11 -64
-41 -89 -66 -25 -26 -58 -56 -75 -66 -16 -10 -53 -37 -82 -59 -92 -72 -137
-102 -203 -139 -36 -20 -72 -41 -80 -46 -91 -56 -240 -139 -255 -142 -29 -5
-30 25 -2 74 87 155 114 201 152 262 94 150 154 234 207 289 33 34 77 87 97
117 44 66 228 260 247 260 8 0 14 4 14 8 0 8 44 30 131 66 20 8 72 25 115 36
44 12 139 53 219 93 77 40 157 78 177 85 20 7 113 17 205 21 135 7 177 13 215
29 26 12 65 26 86 31 47 13 64 41 65 109 1 43 -4 55 -26 78 -15 15 -37 45 -50
66 -14 27 -30 41 -49 45 -16 3 -28 9 -28 12 0 4 -16 5 -35 3 -21 -3 -35 0 -35
7 0 6 -10 11 -23 11 -13 0 -27 4 -33 8 -11 10 -95 36 -182 57 -110 26 -183 19
-287 -25 -11 -5 -36 -16 -56 -23 -43 -18 -117 -89 -125 -123 -3 -13 -12 -24
-19 -24 -29 0 -144 -43 -190 -71 l-49 -31 -18 22 c-14 18 -18 41 -18 111 0
100 11 133 49 147 29 11 101 29 146 36 42 6 124 38 165 64 19 12 60 29 90 38
30 9 66 24 80 34 15 10 38 22 53 25 15 4 27 12 27 17 0 5 5 8 12 6 7 -3 23 8
36 23 13 16 29 26 37 22 8 -3 15 -1 15 4 0 5 18 28 40 52 22 23 43 54 46 67 3
13 9 24 13 24 14 0 43 111 33 123 -5 7 -13 23 -17 36 -10 32 -31 55 -92 102
-29 22 -53 45 -53 51 0 6 -10 20 -23 32 -40 37 -194 25 -302 -23 -39 -17 -253
-46 -264 -36 -2 3 1 11 7 17 7 7 12 25 12 40 0 15 4 28 10 28 5 0 9 3 8 8 -1
4 4 23 11 42 8 19 14 39 15 43 1 5 8 14 16 21 8 6 23 26 33 44 9 17 25 45 34
61 17 28 17 34 0 112 -9 46 -21 85 -26 88 -4 4 -11 21 -14 39 -8 39 -30 64
-74 83 -18 8 -33 18 -33 22 0 5 -5 7 -12 5 -6 -2 -25 11 -41 29 -16 18 -40 36
-54 39 -14 4 -68 28 -121 54 -118 57 -140 61 -364 66 l-177 3 -60 -45z m1023
-2879 c6 -17 -66 -179 -116 -260 -67 -108 -84 -128 -162 -193 -45 -36 -85 -72
-91 -78 -18 -22 -249 -132 -344 -164 -51 -17 -107 -30 -124 -28 -30 3 -32 6
-31 39 1 25 17 62 50 115 78 127 79 129 279 280 33 25 76 59 95 76 40 35 312
186 350 194 14 3 36 12 50 19 32 18 37 18 44 0z"/>
<path d="M15625 17011 c-38 -19 -101 -69 -170 -134 -60 -57 -143 -125 -182
-150 -40 -26 -73 -51 -73 -56 0 -5 -10 -13 -22 -16 -13 -4 -48 -19 -78 -35
-30 -15 -75 -33 -100 -40 -25 -6 -84 -27 -131 -46 -48 -19 -89 -34 -92 -34 -3
0 -40 -34 -83 -75 -44 -41 -94 -80 -113 -86 -38 -13 -169 -7 -278 12 -34 6
-84 8 -110 5 -116 -13 -140 -18 -173 -35 -35 -18 -70 -29 -170 -55 -30 -7 -80
-24 -110 -36 -54 -22 -134 -40 -256 -59 -34 -5 -70 -14 -80 -19 -11 -5 -39
-17 -64 -25 -108 -37 -212 -77 -238 -91 -40 -22 -190 -44 -327 -50 -86 -3
-139 -11 -185 -26 -93 -30 -170 -49 -205 -50 -17 0 -55 -7 -85 -15 -118 -34
-178 -44 -252 -45 -43 0 -97 -7 -121 -15 -24 -8 -61 -18 -82 -23 -21 -4 -41
-14 -43 -21 -3 -8 0 -11 7 -7 6 4 30 -6 53 -21 24 -15 63 -38 88 -49 146 -70
186 -77 412 -72 129 3 203 9 223 18 17 7 57 25 91 40 76 35 209 68 296 74 36
3 88 12 114 21 26 9 106 29 178 45 72 16 151 36 175 44 24 9 52 16 62 16 11 0
19 3 19 8 0 19 71 45 145 52 76 7 129 20 310 75 44 13 123 29 175 35 52 6 136
22 185 35 50 13 151 38 225 56 74 17 189 47 255 67 250 72 295 77 321 37 16
-24 14 -27 -55 -131 -40 -58 -89 -135 -111 -170 -42 -69 -37 -78 27 -53 15 6
78 15 138 20 181 15 363 37 480 59 61 11 166 29 235 40 172 27 204 34 286 68
155 63 263 142 305 221 18 36 21 54 17 130 -4 86 -6 92 -54 171 -27 46 -69 99
-92 119 -24 20 -50 48 -58 63 -17 33 -79 74 -250 164 l-129 68 -95 4 c-90 3
-98 2 -155 -27z"/>
<path d="M11360 16160 c-19 -5 -67 -13 -106 -18 -52 -7 -99 -23 -175 -61 -181
-89 -336 -226 -413 -366 -22 -38 -51 -88 -66 -110 -36 -53 -145 -270 -160
-317 -12 -38 -7 -88 24 -243 15 -76 54 -185 66 -185 5 0 18 -19 29 -42 12 -24
36 -53 54 -66 63 -45 108 -72 117 -72 6 0 10 -4 10 -10 0 -6 42 -10 105 -10
58 0 105 4 105 9 0 5 12 12 26 15 30 8 153 128 170 166 7 14 28 81 47 150 20
69 48 156 62 195 15 38 33 104 41 145 29 150 33 166 48 203 9 20 19 65 22 100
7 75 29 148 65 219 5 10 9 27 9 38 0 10 7 39 15 64 23 66 22 154 -1 176 -25
24 -52 29 -94 20z"/>
<path d="M14187 15813 c-4 -3 -15 -7 -25 -8 -26 -2 -115 -50 -136 -74 -11 -12
-25 -21 -33 -21 -7 0 -13 -3 -13 -7 0 -5 -32 -28 -71 -53 -39 -25 -90 -64
-113 -87 -22 -23 -62 -51 -87 -62 -26 -10 -53 -28 -60 -39 -9 -12 -30 -22 -54
-25 -22 -3 -67 -14 -100 -26 -33 -12 -103 -25 -156 -30 -80 -6 -106 -13 -145
-36 -27 -16 -69 -32 -94 -36 -25 -4 -110 -21 -190 -39 -134 -29 -163 -32 -390
-37 -225 -5 -270 -11 -270 -33 0 -17 57 -68 90 -81 19 -7 55 -29 80 -50 57
-46 88 -57 230 -78 117 -17 174 -15 276 9 48 12 55 11 93 -11 l41 -23 0 -62
c0 -68 8 -56 -97 -138 -21 -17 -67 -66 -103 -109 -88 -108 -194 -198 -287
-246 -23 -11 -58 -32 -78 -46 -21 -13 -52 -27 -70 -31 -57 -10 -68 -31 -64
-126 4 -71 9 -94 42 -162 21 -44 47 -86 58 -94 56 -39 133 -72 188 -81 53 -9
72 -6 163 19 112 30 125 35 210 74 56 26 152 36 192 20 20 -8 21 -60 2 -67 -8
-3 -32 -30 -54 -59 -22 -30 -76 -95 -120 -145 -80 -91 -112 -138 -112 -167 0
-8 51 36 113 98 61 62 134 129 160 150 46 37 49 37 62 20 11 -14 14 -52 15
-140 0 -108 -2 -124 -21 -148 -16 -20 -29 -26 -58 -26 -20 0 -71 -9 -112 -21
-41 -11 -114 -25 -164 -30 -99 -10 -135 -21 -161 -50 -13 -15 -31 -19 -80 -19
-66 0 -164 -17 -164 -28 0 -14 40 -31 98 -42 33 -6 96 -27 139 -48 74 -35 83
-37 183 -37 58 0 139 2 181 4 72 3 79 2 115 -25 22 -15 40 -29 41 -29 2 -1 8
-39 14 -84 14 -101 5 -131 -40 -131 -16 0 -59 -9 -97 -21 -56 -17 -117 -23
-353 -34 -201 -9 -298 -18 -326 -28 -22 -8 -89 -25 -150 -36 -60 -12 -150 -31
-200 -41 -118 -26 -151 -25 -194 5 -89 61 -260 100 -323 74 -44 -18 -116 -65
-155 -103 -32 -29 -33 -33 -33 -109 0 -94 20 -171 60 -225 32 -44 118 -90 222
-117 76 -21 229 -21 273 -1 17 7 56 25 88 40 31 14 67 26 80 26 12 0 51 9 87
21 36 11 99 24 142 29 42 5 111 23 155 39 58 23 95 31 143 31 41 0 93 9 143
25 43 14 101 25 130 25 82 0 376 46 437 69 66 24 157 41 220 41 25 0 77 9 115
19 89 25 206 41 370 51 72 5 148 13 170 19 59 16 271 13 362 -4 43 -8 105 -15
138 -15 33 0 85 -7 115 -15 92 -25 232 -16 359 21 55 17 69 27 137 99 83 88
133 182 134 248 0 38 -33 117 -49 117 -5 0 -16 7 -24 14 -8 8 -39 24 -68 34
-30 11 -72 27 -94 35 -47 18 -194 37 -281 37 -91 0 -179 -33 -234 -89 -68 -69
-120 -96 -341 -176 -85 -31 -172 -67 -192 -80 -31 -21 -47 -25 -116 -25 -44 0
-82 -4 -86 -10 -8 -12 -30 -4 -97 39 -31 19 -63 47 -71 61 -9 15 -17 69 -22
136 l-6 111 43 20 c74 35 149 53 223 53 61 0 77 4 116 28 66 43 139 128 141
166 2 48 -3 89 -13 108 -19 36 -226 104 -278 91 -14 -3 -48 -17 -76 -31 -33
-17 -68 -25 -104 -26 -50 -1 -55 1 -70 29 -21 37 -42 182 -43 291 0 69 4 89
28 138 15 32 36 61 45 66 23 13 97 37 139 45 71 14 206 56 244 76 22 11 69 48
104 82 102 98 156 242 118 315 -27 53 -159 178 -202 192 -21 7 -61 29 -89 49
-27 20 -70 49 -95 65 -45 29 -99 76 -100 87 0 3 12 11 28 18 38 18 157 98 173
117 7 9 38 33 69 54 31 21 68 54 83 73 14 19 38 39 54 46 29 12 107 111 125
159 14 35 -7 82 -60 138 -56 59 -90 74 -164 74 -36 0 -68 -3 -71 -7z m-523
-961 c29 -26 49 -72 62 -141 13 -71 8 -97 -27 -130 -30 -28 -160 -70 -250 -80
-41 -5 -110 -21 -153 -36 -82 -27 -106 -27 -106 0 0 24 29 75 42 75 6 0 54 42
107 93 53 51 123 114 156 139 33 26 69 61 80 78 16 25 25 29 45 25 14 -4 33
-14 44 -23z"/>
<path d="M5305 15689 c-33 -17 -67 -37 -76 -45 -8 -7 -31 -19 -50 -25 -19 -7
-41 -18 -49 -25 -39 -33 -169 -84 -241 -93 -41 -6 -100 -22 -130 -36 -30 -13
-61 -25 -70 -25 -22 0 -43 -26 -36 -45 4 -10 13 -12 26 -7 31 11 237 -4 316
-23 50 -13 130 -19 283 -23 l212 -4 68 34 c37 20 82 39 100 43 21 4 37 16 47
36 9 16 26 31 39 35 43 10 61 88 30 132 -8 12 -22 22 -30 22 -9 0 -34 11 -57
24 -45 26 -138 45 -252 52 -63 4 -76 1 -130 -27z"/>
<path d="M6542 15461 c-91 -15 -110 -51 -111 -211 -2 -93 -14 -117 -71 -140
-175 -69 -288 -110 -309 -110 -13 0 -45 -13 -70 -28 -44 -27 -110 -60 -178
-89 -18 -7 -33 -20 -33 -28 0 -8 -9 -15 -20 -15 -23 0 -95 -34 -104 -49 -4 -5
-25 -19 -49 -30 -23 -11 -55 -32 -70 -46 -76 -71 -224 -104 -322 -71 -26 9
-60 14 -74 11 -51 -11 -113 -13 -140 -5 -28 8 -175 -9 -251 -30 -68 -18 -178
-68 -234 -107 -46 -31 -50 -32 -67 -17 -17 16 -50 137 -64 238 -4 27 -16 66
-27 87 -13 25 -18 48 -14 63 3 14 2 27 -3 30 -5 3 -23 35 -40 71 -36 77 -79
137 -93 129 -6 -4 -8 -27 -5 -53 3 -25 0 -55 -5 -65 -6 -11 -13 -69 -15 -130
-2 -61 -5 -131 -6 -156 -1 -25 -5 -49 -8 -55 -4 -5 -19 -82 -33 -170 -15 -88
-31 -169 -37 -180 -6 -12 -11 -27 -12 -35 -2 -8 -6 -21 -10 -27 -5 -7 -5 -13
-1 -13 3 0 2 -6 -4 -12 -28 -35 -61 -109 -67 -151 -4 -26 -11 -47 -16 -47 -12
0 -12 -33 0 -45 5 -6 23 -45 40 -88 17 -43 42 -99 55 -125 63 -122 236 -215
309 -167 51 33 73 85 132 310 14 55 29 107 33 115 3 8 7 20 8 25 1 6 3 13 4
18 1 4 3 10 5 15 1 4 5 14 8 22 4 8 18 49 33 90 30 84 89 192 127 230 33 33
57 52 57 46 0 -3 20 6 45 19 25 14 46 25 47 24 2 -1 21 7 44 19 l41 21 34 -28
c19 -15 50 -33 69 -40 48 -15 132 -91 180 -161 62 -91 121 -131 220 -150 25
-5 68 -14 95 -20 96 -22 135 20 135 145 0 42 6 74 15 89 8 12 26 59 39 103 13
44 32 96 42 114 44 88 214 269 251 269 10 0 61 23 113 50 52 28 111 55 130 59
19 5 43 12 53 16 15 6 17 0 17 -61 0 -69 -16 -135 -64 -269 -14 -38 -26 -79
-26 -90 0 -10 -11 -28 -25 -40 -13 -11 -26 -31 -29 -45 -7 -43 -44 -119 -112
-232 -36 -60 -75 -133 -88 -163 -12 -29 -33 -63 -47 -74 -14 -11 -34 -40 -43
-66 -10 -25 -22 -45 -27 -45 -5 0 -13 -10 -18 -22 -14 -35 -69 -108 -144 -189
-106 -116 -169 -201 -159 -211 7 -7 42 6 98 35 49 25 114 57 144 70 30 14 92
52 137 86 44 33 91 61 103 61 42 0 89 32 131 88 50 68 88 102 111 102 9 0 33
-11 53 -24 42 -29 148 -66 187 -66 16 0 41 -8 55 -17 18 -12 56 -20 108 -23
44 -4 95 -13 114 -23 22 -11 39 -14 50 -8 9 5 56 14 104 20 102 12 151 32 174
72 10 16 24 29 33 29 24 0 69 37 134 110 72 82 76 87 76 99 0 5 6 16 13 23 7
7 21 31 31 53 76 164 125 259 161 315 53 81 108 189 135 266 11 32 35 84 54
114 40 65 56 133 56 236 l0 75 -47 56 c-119 139 -138 156 -179 158 -21 2 -47
6 -56 10 -10 4 -25 5 -33 2 -8 -4 -17 -2 -21 4 -3 5 -13 9 -22 8 -10 -1 -25 1
-35 6 -9 4 -46 5 -81 3 -49 -3 -73 -10 -103 -31 -21 -15 -47 -27 -56 -27 -9 0
-43 -8 -74 -19 -32 -10 -101 -29 -153 -41 -52 -13 -109 -29 -126 -36 -29 -12
-31 -11 -47 16 -10 16 -32 39 -49 51 -17 13 -48 41 -67 63 -68 74 -59 71 -149
57z m743 -334 c49 -13 50 -14 53 -56 2 -26 -7 -77 -23 -129 -15 -48 -29 -96
-32 -107 -9 -34 -145 -327 -175 -378 -15 -26 -45 -71 -67 -100 -21 -29 -53
-80 -69 -114 -36 -70 -81 -112 -170 -154 -86 -42 -121 -42 -217 -2 -44 18 -85
33 -92 33 -20 0 -15 25 8 46 38 34 129 235 196 429 93 273 103 311 103 390 0
69 1 71 32 90 18 10 52 20 76 21 24 2 49 7 56 13 34 28 237 40 321 18z"/>
<path d="M6805 13491 c-64 -9 -118 -22 -205 -51 -108 -35 -195 -60 -211 -60
-9 0 -19 -3 -23 -7 -9 -9 -116 -43 -136 -43 -22 0 -168 -48 -216 -71 -22 -10
-47 -19 -55 -19 -19 0 -167 -53 -234 -84 -27 -13 -88 -33 -135 -45 -47 -12
-155 -53 -240 -91 -150 -66 -270 -111 -338 -125 -28 -6 -36 -3 -60 26 -15 18
-55 63 -89 99 l-62 65 3 -325 c3 -330 14 -468 41 -535 9 -20 39 -65 68 -98 57
-68 98 -151 117 -239 11 -49 21 -64 76 -119 58 -58 66 -62 91 -53 15 5 36 25
47 44 19 31 21 51 21 195 0 115 -5 181 -17 235 -21 89 -73 230 -117 317 -36
73 -57 132 -66 188 -3 22 -8 49 -10 61 -4 16 5 26 34 42 34 19 54 22 156 22
111 0 121 2 174 30 31 16 73 32 94 35 21 3 104 39 185 80 165 84 172 84 172 2
0 -38 8 -64 34 -111 34 -60 34 -63 27 -141 -13 -143 -73 -234 -221 -336 -49
-33 -121 -93 -161 -133 -69 -71 -134 -155 -125 -163 5 -6 93 50 177 112 95 71
173 105 238 105 l54 0 -8 -57 c-4 -32 -8 -74 -9 -93 -1 -19 -5 -42 -9 -50 -4
-8 -8 -55 -9 -105 -3 -81 -5 -90 -23 -93 -11 -1 -49 -11 -85 -22 -36 -10 -84
-24 -107 -30 -32 -8 -47 -19 -59 -42 -9 -16 -33 -49 -54 -72 -20 -22 -45 -56
-55 -75 l-17 -35 45 -43 c51 -48 81 -53 152 -28 22 8 58 15 80 15 22 0 58 5
80 10 46 11 181 33 305 51 47 6 105 17 130 25 65 19 392 22 447 4 60 -20 144
0 191 46 19 19 39 34 44 34 17 0 48 41 48 63 0 15 -11 28 -32 40 -18 10 -44
26 -57 36 l-24 18 77 74 c116 110 243 288 262 365 4 16 23 58 43 94 20 36 46
88 58 115 50 116 123 292 123 298 0 4 15 47 34 95 18 48 36 112 40 143 5 51 3
60 -24 101 -17 26 -42 54 -57 63 -47 31 -111 95 -122 123 -10 24 -26 33 -109
59 -221 70 -271 79 -387 64z m65 -182 c94 -42 106 -74 71 -184 -41 -126 -70
-232 -82 -295 -7 -36 -22 -85 -34 -110 -12 -25 -20 -53 -17 -63 5 -23 -35 -67
-60 -67 -24 0 -115 47 -203 105 -78 50 -83 51 -174 9 -29 -13 -57 -24 -61 -24
-4 0 -5 39 -3 88 10 174 -26 249 -148 304 -38 17 -69 34 -69 39 0 5 39 27 88
50 48 23 113 54 144 70 80 40 178 67 282 79 49 5 91 12 94 15 14 14 130 3 172
-16z m-307 -1265 c6 -33 -65 -174 -97 -191 -29 -16 -181 -28 -230 -19 -42 8
-51 40 -14 51 11 4 59 35 106 69 148 107 157 112 208 115 16 1 23 -6 27 -25z"/>
<path d="M10366 12150 c-93 -6 -101 -8 -124 -36 -14 -16 -29 -28 -33 -27 -4 1
-13 -4 -19 -12 -7 -8 -19 -15 -27 -15 -25 0 -11 -45 15 -48 12 -2 22 -7 22
-12 0 -9 26 -25 98 -60 28 -14 42 -27 38 -35 -2 -7 2 -19 10 -26 13 -11 15
-52 11 -293 -5 -314 -17 -455 -49 -566 -12 -41 -21 -83 -20 -93 0 -10 -9 -22
-24 -27 -13 -5 -24 -14 -24 -20 0 -5 -7 -10 -15 -10 -9 0 -18 -6 -21 -12 -3
-8 -27 -13 -68 -14 -52 -1 -78 -8 -148 -43 -47 -22 -90 -41 -96 -41 -5 0 -12
-7 -16 -15 -3 -9 -18 -15 -34 -15 -18 0 -40 -11 -58 -27 -16 -15 -37 -26 -46
-25 -9 2 -39 -8 -67 -23 -28 -14 -64 -27 -80 -28 -17 -2 -36 -9 -44 -15 -23
-19 -88 -44 -102 -38 -7 2 -16 -1 -18 -8 -6 -14 -126 -61 -134 -52 -4 3 -7 14
-8 24 -1 9 -5 24 -8 32 -3 8 -8 71 -10 140 -4 90 -11 143 -26 188 -11 34 -23
99 -27 145 -4 45 -13 97 -20 116 -8 18 -14 40 -14 47 0 17 -86 155 -108 172
-41 32 -92 0 -92 -59 0 -19 -4 -39 -10 -45 -5 -5 -12 -30 -14 -54 -2 -24 -9
-46 -15 -48 -6 -2 -11 -18 -11 -35 0 -17 -6 -38 -13 -46 -24 -29 -40 -133 -41
-281 -1 -80 -5 -151 -10 -158 -4 -7 -2 -20 6 -29 9 -12 10 -17 1 -20 -7 -3 -9
-13 -4 -31 5 -15 9 -77 10 -139 1 -108 0 -113 -25 -136 -57 -53 -210 -117
-280 -117 -17 0 -60 -9 -94 -20 -79 -25 -82 -25 -114 5 -27 25 -86 35 -86 15
0 -5 3 -10 8 -10 12 0 46 -70 45 -93 -3 -37 79 -134 143 -169 23 -12 66 -22
111 -25 62 -5 83 -2 135 18 34 13 80 41 101 61 41 39 46 41 83 39 15 -1 24
-12 33 -43 7 -24 17 -50 22 -58 5 -8 23 -42 40 -75 60 -121 149 -243 168 -231
5 3 14 -16 21 -42 8 -26 20 -57 27 -69 8 -11 15 -49 17 -82 2 -50 7 -66 28
-89 60 -64 68 -121 18 -137 -24 -8 -58 19 -141 109 -53 57 -61 62 -125 75 -38
8 -80 14 -94 13 -14 -1 -54 -2 -89 -2 l-63 -1 22 -24 c20 -22 21 -30 17 -129
-4 -91 -3 -106 12 -109 9 -3 -14 -5 -50 -6 -68 -1 -136 -22 -145 -44 -3 -8
-17 -11 -38 -9 -33 4 -34 3 -39 -40 -20 -150 -35 -245 -42 -260 -5 -12 -2 -20
9 -24 9 -3 16 -12 16 -20 0 -19 37 -36 63 -28 12 4 54 28 92 54 39 26 99 62
135 80 36 18 89 49 118 68 73 47 124 47 210 2 53 -27 70 -32 109 -27 37 4 53
12 84 46 29 30 47 41 68 41 30 0 82 16 91 28 3 4 21 16 40 26 19 11 40 25 47
30 32 28 41 34 64 41 13 4 30 13 38 19 12 9 12 8 3 -10 -6 -11 -69 -79 -140
-151 -116 -116 -136 -132 -189 -150 -70 -24 -112 -63 -148 -138 -14 -30 -30
-55 -36 -55 -6 0 -7 -5 -4 -10 4 -6 2 -9 -3 -8 -8 3 -42 -28 -173 -154 -27
-26 -84 -74 -127 -106 -43 -33 -95 -81 -117 -108 -63 -78 -76 -92 -145 -146
-66 -51 -159 -144 -195 -194 -11 -15 -58 -66 -105 -113 -103 -103 -126 -148
-136 -257 -6 -80 -6 -81 18 -87 28 -7 117 24 161 56 16 12 82 74 147 137 64
63 140 137 168 164 29 27 52 52 52 56 0 4 25 26 55 49 30 23 62 55 70 71 9 17
20 30 26 30 5 0 34 25 64 55 31 32 62 55 74 55 12 0 21 4 21 9 0 9 70 58 134
93 17 10 38 26 46 37 22 28 56 42 83 36 39 -10 178 76 257 159 43 45 55 38 51
-30 -1 -23 7 -72 17 -110 11 -38 17 -74 15 -80 -2 -6 3 -17 12 -24 8 -7 15
-21 15 -32 0 -25 26 -75 56 -107 14 -14 34 -45 45 -68 11 -24 24 -45 28 -48 4
-2 9 -27 10 -54 1 -37 -3 -53 -16 -63 -10 -7 -31 -30 -46 -50 -15 -21 -33 -38
-40 -38 -7 0 -39 -14 -71 -30 -32 -17 -73 -30 -90 -30 -42 -1 -75 -18 -128
-65 -45 -40 -92 -116 -103 -168 -3 -15 -10 -25 -15 -22 -12 8 -4 -146 9 -190
6 -16 12 -57 14 -90 3 -33 13 -79 24 -102 20 -44 92 -106 136 -117 15 -3 44
-21 65 -39 47 -42 94 -69 187 -107 76 -32 125 -78 125 -117 0 -11 5 -24 11
-30 9 -9 8 -16 -5 -28 -9 -9 -16 -25 -16 -35 0 -21 -56 -90 -72 -90 -6 0 -23
-11 -40 -25 -16 -14 -40 -25 -53 -25 -13 0 -27 -5 -30 -11 -11 -16 -54 -31
-130 -43 -54 -9 -72 -16 -80 -32 -6 -12 -18 -20 -30 -18 -26 4 -35 -4 -28 -22
3 -8 8 -12 11 -9 3 3 16 -2 30 -11 20 -13 63 -15 330 -12 261 3 314 7 352 21
25 10 101 22 175 29 151 13 155 15 198 116 22 53 27 78 27 151 0 101 -9 119
-88 173 -26 17 -72 54 -102 82 -36 34 -70 56 -100 64 -101 29 -214 67 -244 82
-17 10 -64 28 -105 41 -80 25 -262 137 -313 193 -26 28 -28 37 -28 109 0 84
23 149 74 211 l24 29 271 -1 c150 -1 283 -5 296 -8 16 -4 35 0 53 11 41 27 82
67 76 76 -3 5 2 22 11 38 17 33 21 101 5 101 -5 0 -12 17 -16 38 -4 20 -18 51
-31 68 -12 17 -23 34 -23 37 0 4 -18 24 -40 46 -22 21 -40 42 -40 46 0 12 -33
34 -51 35 -9 0 -22 7 -29 14 -6 8 -33 23 -58 32 -26 9 -69 27 -96 40 -28 13
-60 24 -72 24 -12 0 -24 4 -26 9 -1 5 -36 44 -75 86 -40 42 -73 82 -73 90 0 7
-8 21 -17 31 -12 12 -19 38 -21 85 -4 58 -1 71 19 98 12 17 28 31 35 31 7 0
31 18 54 41 39 39 40 42 23 56 -17 13 -17 13 3 4 18 -9 28 -4 61 24 22 19 42
32 45 30 2 -3 5 17 7 44 2 53 -19 85 -41 63 -21 -21 -35 -13 -62 32 -29 49
-31 56 -16 56 6 0 10 -5 10 -11 0 -6 7 -17 15 -26 8 -8 13 -18 10 -23 -3 -4 2
-13 10 -20 29 -24 30 2 10 225 -4 45 -3 46 5 15 5 -19 12 -74 16 -122 5 -59
11 -89 20 -92 15 -6 15 -1 -10 152 -7 39 -9 72 -5 72 9 0 15 -25 29 -125 15
-103 20 -128 25 -123 7 6 -24 228 -34 253 -6 14 -4 27 4 38 11 16 15 13 34
-28 11 -24 21 -51 21 -59 0 -19 50 -77 60 -71 5 3 11 1 15 -5 6 -10 -7 -14
-34 -10 -9 1 -11 -4 -6 -17 4 -10 12 -46 17 -80 11 -62 11 -62 34 -46 22 14
22 17 10 41 -20 40 -30 92 -17 92 6 0 11 -7 11 -16 0 -8 4 -12 10 -9 6 3 7 -1
4 -10 -4 -8 -1 -28 5 -44 10 -22 17 -27 37 -23 19 3 24 0 24 -15 0 -32 29 -62
85 -89 30 -15 57 -35 60 -45 8 -23 71 -47 161 -60 40 -5 93 -19 117 -29 35
-16 53 -17 102 -11 l60 8 55 -42 c31 -24 79 -69 107 -101 27 -33 61 -71 74
-86 13 -15 46 -39 73 -53 55 -28 130 -33 216 -13 46 11 54 16 85 67 51 80 49
132 -7 225 -46 76 -45 75 -243 184 -118 64 -122 66 -215 72 -106 8 -180 27
-180 46 0 7 -15 23 -32 36 -18 12 -42 31 -53 41 -11 10 -33 26 -50 34 -16 9
-32 19 -35 22 -25 32 -149 75 -207 72 -32 -2 -33 0 -33 38 0 22 -3 46 -6 55
-4 11 7 22 40 38 25 12 46 26 46 30 0 15 4 23 30 52 14 16 24 32 22 37 -1 5 2
9 6 9 4 0 6 16 4 35 l-4 36 281 -3 c213 -2 281 0 281 9 0 6 8 18 18 25 26 19
20 50 -17 97 -30 37 -38 42 -65 38 -20 -3 -37 1 -49 11 -9 8 -38 19 -65 25
-73 15 -230 20 -263 8 -31 -11 -34 -5 -29 44 2 16 0 17 -14 6 -8 -7 -20 -10
-26 -6 -14 8 -13 42 1 47 9 3 9 9 0 25 -7 15 -8 30 -1 47 5 14 7 26 4 26 -2 0
2 14 11 30 10 19 11 30 5 30 -6 0 -9 4 -5 9 3 6 -30 13 -75 17 -44 3 -80 11
-80 15 0 14 -17 11 -33 -5 -8 -8 -23 -15 -33 -14 -34 1 -74 -20 -68 -37 4 -9
0 -15 -10 -15 -31 0 -82 -32 -104 -66 -12 -19 -18 -34 -12 -34 5 0 10 -10 10
-22 0 -20 -1 -20 -19 -4 -18 16 -20 15 -40 -17 -11 -19 -21 -42 -21 -52 0 -10
-9 -33 -20 -51 -17 -26 -21 -52 -23 -124 l-2 -90 -35 -10 c-19 -6 -41 -10 -49
-10 -8 0 -19 -7 -26 -17 -16 -22 -35 -8 -35 26 0 16 -7 34 -14 41 -8 6 -23 35
-32 63 -9 29 -27 63 -40 76 -13 13 -21 27 -18 32 3 5 -4 19 -15 31 -12 12 -21
27 -21 33 0 13 -78 96 -88 93 -4 -1 -43 15 -88 37 l-81 40 -6 55 c-22 206 -28
235 -59 325 -16 44 -22 119 -10 111 5 -3 12 1 16 9 3 8 14 15 25 15 22 0 124
107 115 121 -3 5 3 9 13 9 10 0 26 9 36 20 9 11 23 20 31 20 9 0 32 11 52 25
20 14 46 25 58 25 12 0 41 13 65 29 25 17 48 28 52 26 4 -3 12 2 19 10 7 8 20
15 29 15 10 0 26 7 37 15 10 8 31 15 45 15 14 0 38 11 53 24 22 18 41 24 85
25 37 0 60 6 67 16 6 8 25 15 42 15 l30 0 4 -72 c3 -60 -1 -84 -22 -134 -14
-34 -33 -72 -43 -85 -18 -26 -48 -80 -94 -169 -15 -30 -34 -61 -40 -68 -7 -7
-13 -19 -13 -27 0 -7 -3 -15 -8 -17 -4 -1 -25 -30 -46 -63 -21 -33 -51 -79
-67 -102 -34 -50 -50 -133 -25 -133 8 0 18 9 21 20 3 11 17 23 30 26 13 3 27
14 30 24 3 10 32 44 63 76 58 59 92 104 92 124 0 10 22 40 55 74 25 26 47 74
40 87 -4 5 0 9 8 9 15 0 54 82 156 330 15 36 33 78 41 95 21 41 88 85 141 92
24 3 52 10 63 15 26 14 137 13 216 0 36 -6 112 -19 170 -28 58 -9 113 -20 123
-25 9 -6 45 -12 80 -16 73 -6 91 6 101 72 6 35 3 45 -19 69 -14 15 -29 25 -34
22 -4 -3 -21 8 -36 24 -17 18 -39 30 -54 30 -24 0 -69 19 -46 20 5 0 -1 7 -13
16 -37 25 -212 18 -281 -12 -29 -13 -71 -24 -92 -24 -22 0 -48 -6 -59 -12 -17
-11 -25 -8 -59 26 -38 37 -40 42 -35 85 4 25 19 89 36 141 40 127 99 352 110
420 10 64 12 318 3 362 -6 23 -17 35 -54 52 -26 12 -60 34 -75 49 -29 29 -22
29 -190 17z m-929 -1666 c-3 -3 -12 -4 -19 -1 -8 3 -5 6 6 6 11 1 17 -2 13 -5z
m-97 -664 c0 -5 -2 -10 -4 -10 -3 0 -8 5 -11 10 -3 6 -1 10 4 10 6 0 11 -4 11
-10z m1145 -209 c7 -24 -4 -71 -17 -71 -6 0 -7 -7 -4 -16 3 -8 2 -12 -3 -9 -5
3 -11 -7 -13 -22 -2 -20 -10 -29 -31 -34 -20 -5 -27 -4 -24 4 3 7 8 11 13 10
5 -1 10 10 10 23 1 13 -2 24 -7 24 -5 0 -9 8 -8 18 0 10 3 12 6 5 10 -27 21
-11 16 23 -5 29 -2 40 12 50 26 19 43 17 50 -5z m-85 -111 c0 -5 -5 -10 -11
-10 -5 0 -7 5 -4 10 3 6 8 10 11 10 2 0 4 -4 4 -10z m-435 -290 c18 -8 17 -9
-7 -9 -16 -1 -28 4 -28 9 0 12 8 12 35 0z m137 -1 c37 -2 64 -7 62 -11 -6 -10
-136 -11 -160 -1 -16 6 -16 7 2 13 10 4 21 6 24 4 3 -1 36 -4 72 -5z m-378
-32 c-12 -7 -19 -17 -17 -24 2 -6 -9 -18 -24 -27 -35 -18 -149 -39 -164 -31
-5 4 -26 -3 -45 -14 -55 -32 -122 -25 -108 12 4 11 14 16 30 13 16 -3 34 4 53
20 26 21 34 23 76 15 54 -10 113 2 133 27 6 9 12 13 12 10 0 -4 12 -3 28 2 40
12 50 11 26 -3z m286 -176 c5 -11 6 -22 1 -25 -4 -3 -13 6 -19 19 -14 30 2 34
18 6z m-144 -252 c11 -19 -8 -30 -25 -15 -10 9 -32 21 -49 27 -18 6 -30 15
-27 19 6 10 92 -17 101 -31z m864 -25 c0 -8 -4 -12 -10 -9 -5 3 -10 10 -10 16
0 5 5 9 10 9 6 0 10 -7 10 -16z m-966 -54 c-6 -6 -10 -3 -10 10 0 13 4 16 10
10 7 -7 7 -13 0 -20z"/>
<path d="M16926 11994 c-26 -12 -75 -28 -109 -35 -51 -12 -71 -23 -119 -68
-37 -34 -58 -61 -58 -76 0 -25 29 -55 53 -55 26 0 77 -50 77 -76 0 -13 -4 -24
-10 -24 -5 0 -10 -10 -10 -21 0 -12 -14 -46 -31 -76 -28 -48 -30 -59 -24 -105
6 -44 5 -53 -12 -67 -11 -9 -39 -42 -62 -73 -29 -40 -57 -66 -91 -83 -27 -14
-65 -40 -83 -59 -36 -36 -111 -87 -124 -85 -5 1 -20 1 -35 0 -40 -2 -39 -45 1
-65 41 -22 47 -56 15 -82 -50 -41 -208 -115 -264 -124 -153 -24 -235 -41 -254
-53 -30 -20 -134 -54 -181 -60 -22 -2 -74 -21 -116 -41 -99 -46 -143 -55 -257
-56 -89 0 -96 2 -137 31 -55 39 -72 70 -57 103 15 33 -14 62 -70 71 -24 3 -55
8 -69 11 -25 5 -27 2 -39 -57 -11 -53 -11 -66 1 -88 12 -21 21 -25 46 -23 41
4 112 -37 149 -86 47 -62 127 -143 156 -158 15 -8 37 -32 48 -54 35 -69 48
-73 250 -73 149 1 184 3 205 17 13 9 29 16 36 16 6 0 39 16 73 35 34 19 120
53 192 76 188 60 257 91 385 175 59 38 75 44 145 50 68 5 85 11 118 37 36 28
49 32 130 37 109 8 151 25 276 111 l91 63 162 0 162 1 57 33 c31 18 71 49 88
68 30 34 34 36 81 32 37 -4 56 -1 72 12 51 38 188 104 273 130 50 16 122 44
160 63 38 19 103 46 145 60 43 14 96 35 120 48 34 17 62 22 134 23 81 1 96 5
146 33 72 41 118 52 245 63 96 7 107 10 142 40 20 17 47 40 60 50 24 20 29 60
12 107 -13 36 -85 100 -125 112 -16 5 -50 14 -75 21 -25 7 -72 24 -105 37 -33
14 -73 31 -90 38 -16 7 -43 18 -60 25 -24 10 -305 33 -379 32 -25 -1 -120 -48
-154 -77 -15 -12 -50 -30 -78 -38 -28 -8 -64 -27 -80 -42 -57 -53 -149 -132
-181 -153 -43 -31 -96 -29 -117 3 -20 31 -23 194 -3 214 13 13 16 10 -84 90
-44 37 -92 49 -186 50 -44 1 -53 4 -53 19 0 16 -18 17 -238 17 -224 1 -241 0
-286 -21z"/>
<path d="M7038 11266 c-21 -16 -23 -32 -5 -43 8 -4 31 -30 51 -58 21 -27 43
-54 50 -60 7 -5 24 -35 38 -65 15 -30 36 -66 47 -79 12 -13 21 -30 21 -38 0
-7 4 -13 8 -13 12 0 35 -49 38 -80 2 -13 10 -30 19 -36 17 -13 21 -29 3 -18
-7 5 -9 2 -6 -7 3 -8 13 -40 22 -72 9 -32 24 -66 34 -75 9 -10 18 -28 20 -41
6 -54 59 -132 85 -123 4 1 19 -10 33 -25 13 -14 32 -27 42 -28 9 0 22 -4 29
-8 21 -13 129 -6 173 11 40 17 143 121 136 139 -4 10 -2 14 8 10 32 -12 32
157 0 184 -8 6 -14 17 -14 23 0 6 -18 31 -41 56 -22 25 -46 56 -54 70 -7 14
-39 46 -71 70 -31 25 -73 59 -93 76 -38 32 -108 64 -127 57 -6 -2 -17 3 -24
12 -7 8 -25 15 -41 15 -15 0 -32 6 -36 13 -4 6 -35 25 -68 42 -33 16 -62 32
-65 36 -3 3 -29 9 -59 13 -36 5 -65 16 -84 32 -32 27 -45 29 -69 10z"/>
<path d="M18934 10961 c-24 -4 -144 -91 -206 -149 -36 -34 -51 -57 -63 -101
-34 -117 -80 -187 -202 -307 -29 -28 -53 -56 -53 -61 0 -6 -16 -31 -35 -56
-25 -33 -31 -46 -21 -50 15 -6 109 41 169 84 31 23 51 29 89 29 l50 0 -4 -87
c-3 -75 -10 -103 -45 -190 -47 -114 -77 -163 -193 -308 -188 -236 -233 -381
-160 -508 6 -10 8 -23 4 -29 -4 -7 -3 -8 4 -4 7 4 12 3 12 -2 0 -34 88 -14
124 28 24 30 26 30 125 30 100 0 101 0 115 -27 7 -16 17 -62 21 -103 6 -63 3
-82 -13 -120 -24 -56 -124 -225 -152 -257 -11 -13 -20 -28 -20 -33 0 -6 -7
-10 -15 -10 -8 0 -14 -4 -13 -8 3 -9 -58 -76 -175 -192 -54 -55 -75 -82 -71
-94 5 -14 -3 -16 -54 -16 -34 0 -64 5 -67 10 -10 16 -105 61 -115 55 -5 -3
-18 -1 -28 4 -11 6 -30 12 -43 15 -13 3 -42 10 -64 15 -57 13 -332 16 -382 4
-23 -6 -55 -18 -70 -28 -36 -24 -154 -122 -173 -145 -49 -59 -112 -98 -201
-128 -114 -37 -290 -72 -366 -72 l-55 0 6 31 c3 17 31 82 61 144 50 102 62
119 113 158 51 38 58 48 63 87 6 48 38 111 82 160 22 25 35 30 71 30 26 0 53
7 67 18 13 10 47 31 74 46 28 16 73 46 101 67 45 33 141 75 160 69 4 -1 10 3
13 8 12 19 138 75 197 88 68 14 136 46 203 94 l44 32 -7 85 c-4 47 -12 96 -17
110 -5 14 -10 56 -11 94 -1 65 1 70 38 116 41 51 84 93 96 93 13 0 66 85 76
122 6 21 26 57 46 81 20 24 36 49 36 56 0 14 -56 15 -65 1 -4 -6 -24 -22 -45
-35 -21 -13 -45 -37 -52 -52 -15 -31 -98 -89 -176 -122 -30 -12 -81 -42 -114
-67 l-60 -44 -137 0 c-127 0 -194 11 -235 38 -6 4 -24 7 -41 7 -31 0 -33 7
-20 70 4 19 61 55 86 55 18 0 143 86 170 118 19 20 44 33 80 42 75 18 141 53
173 92 84 101 136 180 136 205 0 40 -99 139 -153 154 -27 7 -126 9 -296 5
-405 -8 -378 -5 -463 -61 -40 -26 -104 -74 -143 -105 -38 -32 -107 -83 -153
-114 -46 -31 -93 -65 -104 -76 -12 -11 -26 -20 -31 -20 -5 0 -72 -31 -149 -70
-84 -42 -152 -70 -171 -70 -57 0 -211 -31 -239 -48 -15 -9 -28 -24 -28 -34 0
-15 -4 -16 -26 -8 -38 15 -48 12 -60 -13 -8 -19 -5 -40 18 -108 33 -100 31
-145 -12 -234 -16 -33 -34 -78 -40 -101 -7 -30 -32 -63 -102 -136 -104 -108
-170 -148 -253 -153 -36 -2 -51 -7 -53 -18 -3 -12 -19 -17 -70 -19 l-67 -3
-12 40 c-14 47 -11 52 23 36 29 -13 54 -1 54 26 0 19 100 217 135 269 33 49
32 68 -10 148 -19 37 -35 82 -35 99 0 42 -17 99 -31 108 -7 4 -22 4 -34 -1
-38 -14 -158 -16 -162 -2 -3 8 -33 12 -102 12 -84 0 -104 -3 -149 -26 -47 -23
-52 -29 -52 -58 0 -18 9 -59 21 -92 34 -97 34 -95 -10 -150 -36 -45 -111 -192
-111 -216 0 -8 -75 -169 -131 -283 -6 -11 -29 -35 -53 -53 -32 -26 -55 -60
-96 -140 -35 -70 -66 -118 -91 -139 -28 -25 -42 -48 -58 -101 -11 -38 -29 -80
-39 -93 -33 -42 -55 -93 -59 -134 -13 -157 -11 -172 28 -193 41 -22 142 -199
162 -282 13 -54 37 -288 37 -361 0 -63 3 -79 20 -94 11 -10 25 -37 31 -59 8
-33 34 -64 130 -158 111 -109 119 -119 119 -155 0 -42 -32 -137 -43 -127 -4 4
-7 1 -7 -8 0 -8 -18 -31 -40 -51 -21 -21 -51 -57 -65 -81 -28 -48 -25 -76 15
-118 11 -12 22 -38 25 -57 3 -20 16 -72 27 -116 20 -72 28 -86 77 -136 45 -45
67 -59 115 -72 59 -16 59 -16 114 11 59 29 91 67 117 142 41 117 115 258 185
351 95 127 150 235 150 296 l1 48 83 60 c67 49 87 69 105 110 92 201 151 295
187 295 23 0 93 -66 120 -112 30 -52 74 -142 74 -152 0 -5 16 -42 36 -83 32
-64 41 -74 73 -83 53 -15 82 -12 105 9 12 10 43 31 70 45 87 48 159 103 251
190 50 47 95 86 102 86 6 0 45 31 85 68 40 37 95 83 122 101 26 18 60 46 75
60 48 50 72 61 135 61 53 0 63 -4 102 -36 30 -24 44 -43 44 -60 0 -13 5 -24
10 -24 6 0 8 -15 4 -40 -6 -35 -2 -46 32 -96 40 -58 60 -74 92 -74 19 0 62 39
62 57 0 5 8 17 18 26 15 14 40 17 122 17 122 0 160 14 244 91 29 27 57 45 61
41 5 -4 5 -2 2 5 -5 7 23 29 74 58 48 28 102 69 133 103 28 30 83 86 121 123
89 86 108 134 103 262 -2 74 -1 87 12 84 8 -2 29 6 45 18 34 25 117 55 151 55
12 0 41 9 65 20 68 30 110 26 169 -16 41 -29 49 -40 44 -57 -6 -18 -69 -114
-84 -127 -49 -42 -96 -182 -116 -345 -9 -73 -85 -185 -126 -185 -22 0 -25 -38
-4 -46 8 -3 28 1 43 10 15 8 54 27 86 42 32 14 76 43 97 64 26 25 51 40 77 44
68 11 80 14 101 25 33 18 158 13 221 -8 107 -36 137 -41 301 -45 174 -4 258
-16 295 -40 17 -11 58 -15 166 -16 79 -1 152 1 162 5 11 5 17 18 17 36 0 30
41 122 60 134 5 3 10 26 10 50 0 40 -2 44 -29 50 -30 6 -60 34 -80 72 -7 14
-17 20 -27 16 -13 -5 -15 1 -13 33 1 21 -4 53 -12 69 -12 25 -20 30 -47 27
-24 -2 -32 1 -32 12 0 14 -12 15 -82 10 -62 -4 -92 -2 -117 9 -46 20 -85 3
-165 -70 -34 -30 -79 -67 -101 -82 -22 -14 -44 -31 -48 -38 -4 -7 -27 -13 -51
-13 -24 0 -72 -9 -106 -20 -72 -23 -148 -26 -174 -7 -17 12 -17 15 -2 29 9 9
16 20 16 24 0 4 9 17 20 29 11 11 35 53 54 91 29 61 44 78 99 117 48 34 71 59
88 94 13 27 49 73 80 103 31 30 62 65 68 78 7 12 49 47 94 76 45 30 98 70 117
89 20 19 50 42 67 50 22 12 35 29 47 64 22 64 21 70 -22 154 -51 98 -77 111
-227 119 -98 5 -117 10 -172 38 -35 18 -63 37 -63 42 0 31 57 114 122 175 41
40 86 94 102 125 16 30 35 59 43 63 22 13 17 146 -7 177 -11 14 -20 31 -20 38
0 6 -9 21 -19 31 -22 22 -58 18 -63 -7 -4 -21 -71 37 -104 90 -19 30 -30 38
-54 38 -16 0 -44 9 -62 20 -24 14 -42 18 -69 14 -31 -5 -39 -3 -48 15 -7 11
-18 21 -25 21 -8 0 -17 24 -24 64 -16 84 -15 88 6 82 27 -9 55 27 100 129 21
50 56 122 78 160 94 167 154 330 154 415 0 11 -39 57 -89 105 l-90 87 -99 1
c-54 1 -107 0 -118 -2z m-1932 -1331 c17 -16 26 -30 19 -30 -14 0 -61 -45 -61
-58 0 -5 -9 -20 -19 -34 -11 -13 -24 -50 -30 -82 -16 -86 -53 -143 -110 -170
-57 -26 -142 -79 -196 -122 -22 -17 -58 -42 -81 -55 -22 -13 -59 -36 -82 -51
-23 -16 -46 -28 -51 -28 -6 0 -31 -11 -57 -25 -26 -14 -57 -25 -70 -25 -12 0
-58 -15 -101 -32 -78 -33 -79 -33 -275 -36 l-198 -3 -50 28 c-43 24 -50 32
-50 59 0 36 29 82 110 174 64 72 120 161 120 190 0 13 5 17 19 13 14 -3 33 8
64 38 77 76 135 119 159 119 13 0 39 4 58 10 19 5 54 11 77 14 23 3 50 9 60
15 11 5 75 17 143 25 127 17 159 21 240 36 25 5 92 15 150 24 57 9 109 21 114
26 20 20 66 10 98 -20z m-1699 -656 c9 -4 17 -10 17 -14 0 -4 43 -52 95 -105
52 -54 95 -101 95 -106 0 -4 20 -22 45 -39 25 -17 54 -48 65 -70 57 -111 241
-236 383 -260 107 -17 120 -29 131 -120 6 -45 4 -59 -11 -75 -10 -11 -42 -56
-72 -100 -68 -99 -112 -154 -177 -219 -28 -28 -67 -76 -87 -106 -19 -30 -47
-67 -61 -82 -14 -15 -26 -32 -26 -38 0 -5 -8 -10 -18 -10 -10 0 -28 -7 -40
-16 -26 -18 -68 -14 -117 12 -69 36 -116 46 -194 40 -42 -4 -89 -3 -106 2 -29
8 -30 10 -29 73 0 59 11 105 44 199 33 90 40 111 70 200 17 52 34 110 37 128
5 33 -16 99 -43 132 -7 8 -17 33 -24 55 -6 22 -22 60 -35 85 -13 25 -31 62
-40 82 -9 20 -32 48 -50 62 -58 44 -65 55 -65 100 0 34 10 58 44 112 42 64 47
69 83 70 20 1 39 7 41 13 2 7 9 10 16 7 6 -4 19 -9 29 -12z"/>
<path d="M13105 10683 c-11 -2 -30 -6 -42 -9 -16 -3 -23 -12 -23 -27 0 -21 30
-57 49 -57 4 0 16 -8 25 -19 13 -14 16 -33 14 -77 -3 -57 -4 -59 -33 -62 -39
-5 -47 -12 -89 -82 -35 -59 -35 -60 -14 -71 16 -8 31 -8 60 1 49 14 116 5 143
-20 11 -10 40 -26 65 -36 63 -25 139 -75 181 -121 20 -21 55 -51 78 -67 l41
-29 43 29 c23 16 54 36 69 43 15 8 36 23 46 35 23 25 52 127 52 180 0 48 -43
138 -80 170 -44 36 -245 131 -317 149 -33 8 -76 22 -95 31 -28 13 -84 29 -138
40 -8 2 -24 2 -35 -1z"/>
<path d="M4268 10653 c-15 -2 -42 -22 -62 -44 -32 -34 -36 -45 -36 -93 0 -99
48 -131 218 -146 59 -5 134 -16 167 -24 133 -32 176 -36 401 -36 217 0 235 -1
253 -19 18 -18 19 -31 14 -211 -6 -194 2 -280 34 -380 7 -25 18 -92 23 -150
10 -116 17 -165 30 -195 4 -11 22 -60 39 -110 71 -201 189 -397 312 -515 43
-41 99 -103 124 -138 25 -35 61 -77 80 -93 18 -17 49 -53 69 -82 49 -74 82
-107 151 -152 100 -65 141 -102 191 -172 87 -125 157 -213 168 -214 6 0 18 -2
27 -4 42 -8 43 11 7 97 -19 45 -41 106 -48 133 -7 28 -24 63 -37 79 -13 16
-33 47 -45 70 -11 22 -37 59 -58 82 -21 23 -41 52 -45 65 -4 13 -24 42 -45 64
-61 63 -59 122 4 167 31 21 51 46 65 79 18 41 36 58 133 127 126 89 310 187
334 178 12 -5 14 -14 9 -38 -4 -18 -11 -37 -15 -43 -4 -5 -18 -50 -31 -100
-33 -127 -34 -320 -1 -382 29 -56 107 -132 169 -165 l51 -28 12 30 c9 21 11
57 6 118 -3 48 -6 96 -7 107 0 11 -18 73 -39 139 -31 92 -40 134 -40 187 0 59
-4 75 -30 116 -16 26 -30 51 -30 56 0 5 -13 26 -30 47 -22 27 -42 40 -77 50
-27 6 -64 18 -83 26 -31 13 -42 13 -95 -1 -33 -8 -89 -14 -125 -13 -36 1 -75
-4 -88 -11 -91 -49 -230 -167 -292 -249 l-25 -33 -87 83 c-83 80 -132 148
-212 290 -31 56 -48 74 -96 103 -87 53 -144 121 -165 197 -14 52 -16 99 -13
270 2 149 7 211 16 220 6 6 12 18 12 26 0 7 13 33 30 57 32 46 49 106 50 172
0 33 -5 46 -26 62 -15 12 -31 21 -35 21 -5 0 -30 13 -56 29 -27 16 -66 34 -88
40 -22 6 -56 22 -76 35 -38 26 -155 51 -312 67 -100 10 -115 16 -155 65 -29
35 -35 37 -173 65 -134 27 -241 34 -321 22z"/>
<path d="M3716 10389 c-58 -14 -94 -44 -107 -91 -23 -88 25 -168 111 -183 39
-7 46 -5 60 15 60 89 127 122 203 101 53 -15 92 -49 112 -98 18 -42 21 -364 5
-424 -6 -20 -14 -69 -19 -109 -6 -48 -20 -93 -41 -134 -32 -61 -32 -65 -22
-124 6 -34 30 -107 53 -164 l41 -103 -6 -130 c-4 -71 -9 -153 -12 -182 -10
-89 45 -185 210 -366 44 -49 106 -107 138 -129 78 -55 90 -76 138 -238 18 -57
19 -84 13 -257 l-6 -192 25 -38 c14 -21 52 -68 84 -104 47 -54 69 -91 112
-190 28 -68 52 -138 52 -156 0 -17 -12 -85 -26 -150 -31 -144 -31 -285 2 -343
16 -29 19 -54 19 -145 -1 -106 -2 -114 -43 -215 -24 -58 -54 -130 -68 -160
-34 -77 -55 -186 -60 -315 -7 -142 -8 -149 -49 -192 -19 -21 -43 -53 -53 -73
-28 -57 -56 -100 -63 -100 -4 0 -12 15 -19 34 -14 45 -39 66 -112 96 -45 19
-64 33 -79 60 -33 61 -119 249 -141 308 -11 32 -36 76 -54 99 -19 23 -48 72
-64 109 -38 85 -78 135 -149 187 -31 22 -58 44 -61 48 -3 4 -42 29 -86 57
-166 101 -290 207 -326 277 -11 21 -47 65 -79 97 -33 32 -59 64 -59 70 0 13
-73 104 -134 168 -36 37 -102 77 -112 67 -10 -9 61 -118 101 -157 20 -19 46
-52 57 -74 11 -21 44 -62 73 -92 39 -38 56 -63 61 -91 15 -82 41 -115 183
-228 35 -27 77 -61 93 -75 29 -23 78 -109 78 -137 0 -22 -22 -14 -69 25 -111
92 -162 108 -311 98 -81 -5 -100 -3 -110 10 -7 8 -50 42 -94 76 -45 33 -114
90 -155 127 -67 60 -130 103 -280 192 -30 18 -68 44 -85 59 -17 15 -58 42 -91
60 -115 62 -263 168 -363 261 -52 49 -111 91 -156 114 -137 70 -191 122 -172
170 7 20 65 20 175 -1 55 -10 120 -15 182 -12 89 3 104 7 176 43 139 70 304
268 355 428 46 143 47 145 105 187 47 34 64 40 105 40 64 0 130 -34 189 -97
47 -51 109 -136 109 -150 0 -5 19 -27 43 -50 42 -40 171 -110 339 -183 48 -21
107 -54 130 -74 97 -81 215 -173 250 -194 20 -12 39 -29 42 -38 3 -9 6 -54 6
-101 0 -130 16 -207 67 -313 25 -52 63 -135 84 -185 22 -49 45 -101 53 -115 7
-14 23 -52 34 -86 12 -34 30 -77 42 -96 22 -38 59 -168 60 -209 0 -14 14 -43
30 -64 17 -21 30 -47 30 -59 0 -43 12 -64 39 -69 78 -16 95 -80 63 -232 -15
-72 -17 -91 -6 -93 24 -6 62 29 84 75 45 95 66 426 35 546 -8 31 -21 81 -29
111 -8 30 -26 80 -41 112 -27 57 -69 155 -105 244 -10 25 -44 99 -75 165 -79
167 -76 153 -84 331 -10 211 -17 226 -114 236 -47 4 -82 15 -115 35 -26 15
-78 40 -115 54 -37 15 -83 39 -102 53 -46 35 -181 82 -290 101 -52 9 -101 23
-116 34 -15 11 -44 27 -65 36 -64 27 -98 60 -149 146 -65 111 -98 146 -164
176 -31 14 -68 34 -82 44 -21 15 -139 49 -169 49 -5 0 -24 -21 -42 -47 -17
-27 -38 -54 -45 -61 -32 -33 -83 -100 -83 -110 0 -14 -93 -138 -135 -179 -41
-40 -118 -78 -175 -87 -24 -4 -67 -20 -96 -36 -56 -33 -127 -39 -213 -19 -24
5 -96 15 -160 20 -64 6 -140 13 -169 16 -51 5 -54 4 -94 -36 l-41 -41 5 -77
c5 -68 3 -81 -16 -106 -18 -24 -21 -43 -21 -115 0 -99 15 -149 57 -197 31 -36
161 -125 256 -176 31 -17 85 -58 119 -90 34 -32 67 -59 75 -60 158 -6 238 -18
289 -43 31 -14 61 -26 67 -26 6 0 37 -9 67 -21 68 -25 119 -68 147 -123 23
-46 114 -184 135 -205 8 -7 23 -31 34 -52 28 -55 80 -111 153 -163 33 -24 71
-55 83 -68 27 -29 102 -172 131 -250 12 -31 40 -95 62 -141 22 -46 40 -90 40
-97 0 -12 48 -100 92 -169 9 -14 19 -46 23 -70 4 -24 16 -67 27 -95 11 -28 31
-82 44 -120 14 -38 36 -90 48 -115 13 -25 33 -74 45 -109 12 -35 42 -101 66
-147 25 -46 45 -92 45 -103 0 -13 -13 -27 -37 -39 -63 -33 -73 -56 -88 -199
-17 -160 -39 -223 -118 -339 -18 -27 -136 -146 -256 -259 -85 -80 -281 -391
-322 -511 -35 -105 -98 -234 -118 -244 -9 -5 -46 -11 -83 -13 -72 -6 -115 -30
-138 -78 -7 -14 -15 -31 -19 -39 -4 -8 -29 -22 -57 -31 -27 -9 -62 -24 -79
-33 -22 -13 -56 -17 -127 -17 -93 0 -98 1 -98 21 0 12 15 47 34 78 18 31 51
88 72 126 54 100 141 232 187 285 70 81 86 124 92 255 4 74 13 139 26 182 12
37 27 108 34 159 11 80 22 110 87 245 42 85 90 192 108 239 19 47 42 97 51
111 28 40 59 167 59 238 0 58 -3 67 -34 102 -19 21 -40 57 -46 81 -6 24 -26
88 -44 143 -19 55 -42 129 -52 165 -34 126 -251 581 -303 637 -25 28 -34 32
-61 27 -20 -4 -45 0 -71 11 -64 29 -67 6 -15 -115 37 -88 45 -146 25 -197 -44
-117 -207 -142 -281 -43 -27 38 -38 38 -38 1 0 -16 -23 -73 -51 -126 -30 -58
-60 -132 -71 -179 -26 -105 -111 -278 -140 -284 -10 -2 -29 19 -53 57 -38 64
-98 119 -152 140 -17 7 -41 23 -54 37 l-22 24 65 0 c51 0 72 5 98 23 52 35 67
77 84 234 18 159 19 254 5 328 -5 28 -13 120 -18 205 -14 230 -43 296 -187
431 -143 132 -194 173 -264 210 -38 20 -90 60 -127 98 -35 36 -66 62 -69 58
-9 -9 133 -292 194 -390 27 -42 74 -128 105 -190 55 -111 56 -113 58 -207 1
-52 8 -131 15 -175 18 -104 18 -195 2 -195 -7 0 -68 -3 -136 -6 -135 -6 -154
0 -214 63 -25 26 -108 180 -108 200 0 15 -53 114 -111 207 -100 162 -99 159
-221 416 -33 69 -75 157 -95 195 -48 96 -144 341 -244 625 -11 30 -26 87 -34
127 -8 40 -18 80 -24 90 -20 38 -58 63 -104 69 l-47 7 0 -998 0 -998 34 -41
c70 -85 176 -182 228 -209 33 -17 278 -176 346 -223 12 -9 84 -40 160 -68
l137 -52 5 -53 c4 -35 11 -56 23 -62 21 -12 67 -90 67 -115 0 -21 26 -67 56
-99 70 -74 241 -406 286 -552 53 -176 78 -353 78 -561 0 -172 -8 -214 -60
-321 -20 -42 -45 -94 -55 -116 -67 -148 -148 -305 -170 -330 -15 -16 -36 -50
-47 -75 -43 -94 -33 -168 30 -220 36 -30 37 -32 37 -103 0 -64 3 -76 29 -110
16 -21 26 -40 23 -43 -3 -3 -25 0 -49 8 -31 11 -53 28 -80 63 -47 63 -98 92
-184 109 -66 12 -71 12 -113 -11 -24 -12 -59 -23 -76 -23 -18 0 -57 -11 -86
-24 -30 -12 -65 -26 -79 -30 -14 -3 -37 -24 -53 -46 -15 -22 -38 -46 -52 -52
-14 -6 -25 -14 -24 -17 1 -15 100 -77 154 -97 33 -12 83 -34 110 -48 41 -21
69 -27 155 -32 58 -3 124 -12 148 -20 57 -18 188 -18 242 1 28 10 81 15 154
15 71 0 125 5 151 15 22 8 70 14 107 15 48 0 83 7 120 23 29 13 67 27 83 31
35 8 166 57 180 67 6 4 43 21 84 38 69 29 111 39 111 25 0 -18 -36 -62 -58
-71 -15 -6 -52 -22 -82 -34 -60 -25 -209 -111 -254 -146 -32 -26 -57 -87 -49
-121 9 -37 -13 -52 -76 -52 -31 0 -76 -6 -101 -14 -25 -7 -90 -14 -145 -15
-93 -1 -195 -17 -195 -30 0 -18 55 -62 88 -70 22 -6 204 -12 427 -13 335 -3
408 0 520 15 72 11 155 27 185 37 30 11 102 28 160 40 80 16 128 32 202 70
108 56 131 59 181 30 52 -31 120 -35 251 -15 212 32 293 12 415 -105 35 -34
82 -70 104 -82 22 -11 101 -31 175 -45 74 -14 146 -29 160 -34 27 -10 27 -8
-7 -127 -41 -142 -43 -242 -7 -360 9 -26 20 -90 27 -142 6 -52 16 -106 21
-120 6 -14 20 -68 33 -120 29 -118 82 -258 141 -373 30 -58 49 -112 58 -162
15 -87 32 -115 88 -153 39 -25 48 -27 152 -27 84 0 126 5 171 20 57 19 87 20
560 19 420 0 511 -3 570 -17 39 -8 133 -23 210 -32 77 -9 179 -22 226 -30 48
-8 136 -15 195 -15 60 0 204 -8 319 -17 278 -22 315 -21 372 13 38 22 53 25
92 20 61 -8 149 -36 289 -92 97 -39 127 -47 187 -48 100 -1 152 29 110 64 -15
12 -95 171 -95 188 0 30 -164 101 -340 148 -52 13 -108 29 -125 33 -16 5 -57
17 -90 27 -163 48 -389 182 -538 320 -38 35 -108 84 -155 110 -98 53 -289 184
-371 253 -30 25 -76 60 -102 76 -26 17 -92 58 -146 92 -74 46 -134 96 -238
200 -109 107 -153 143 -195 162 -30 13 -66 29 -81 37 -14 7 -61 16 -105 20
-81 7 -104 16 -104 40 0 25 183 13 245 -15 124 -57 180 -71 276 -71 33 0 86
-9 118 -20 80 -27 233 -60 276 -60 20 0 49 6 64 14 25 14 32 13 80 -10 29 -13
69 -31 89 -41 41 -18 133 -76 260 -162 45 -31 97 -64 115 -75 17 -10 69 -40
113 -67 45 -27 85 -49 88 -49 3 0 66 -35 139 -79 72 -43 146 -86 164 -95 17
-9 58 -41 91 -71 53 -49 64 -55 103 -55 56 -1 113 -27 208 -96 102 -74 193
-135 271 -183 158 -95 173 -100 360 -121 125 -14 402 1 485 26 52 15 122 19
515 26 250 5 640 10 865 11 l410 2 80 -27 c44 -15 95 -30 114 -33 19 -4 61
-20 95 -36 34 -16 69 -29 78 -29 10 0 35 -18 55 -41 21 -22 56 -50 78 -61 22
-11 42 -23 45 -27 21 -26 116 -93 162 -115 32 -15 71 -43 87 -63 35 -42 53
-39 94 15 40 52 33 95 -25 164 -25 29 -54 67 -66 84 -19 28 -28 32 -84 36
-111 9 -193 68 -191 136 7 165 9 153 -33 237 -52 105 -113 166 -256 254 -65
40 -120 76 -124 82 -3 5 -24 22 -47 36 -49 31 -147 122 -147 136 0 6 18 26 41
45 54 46 51 74 -10 84 -56 9 -126 36 -171 64 -20 12 -56 25 -80 29 -103 17
-167 89 -205 227 -7 26 -22 60 -33 75 -31 44 -69 125 -77 163 -9 43 -32 122
-51 173 -22 58 -18 194 6 242 11 22 20 49 20 61 0 24 -35 64 -89 104 -55 40
-91 105 -91 164 0 39 -6 58 -24 81 l-23 29 -15 -29 c-16 -33 -34 -133 -43
-236 -6 -72 -2 -79 59 -109 17 -8 47 -31 68 -51 l38 -36 0 -215 c0 -195 2
-225 24 -311 13 -52 41 -126 61 -165 l36 -71 -20 -40 c-39 -75 -95 -90 -186
-47 -33 15 -78 25 -130 29 -44 3 -98 13 -120 21 -49 18 -65 20 -65 5 0 -36
365 -260 496 -304 43 -15 135 -54 204 -87 109 -53 136 -71 210 -142 47 -46
108 -98 135 -116 28 -19 64 -47 80 -62 17 -15 33 -28 38 -28 14 0 172 -103
195 -127 24 -26 62 -95 62 -114 0 -7 -11 -9 -32 -6 -18 4 -107 20 -198 36
-147 27 -195 31 -440 36 -151 4 -316 13 -367 21 -65 10 -242 16 -595 20 -338
4 -534 11 -598 20 -392 55 -383 53 -451 89 -56 28 -277 159 -364 215 -13 8
-65 41 -117 74 -51 32 -112 77 -136 100 -44 42 -163 119 -310 201 -46 25 -156
95 -245 154 -89 59 -223 139 -297 177 -151 76 -209 110 -290 164 -30 20 -111
63 -180 94 -123 56 -241 122 -390 218 -50 32 -83 62 -100 90 -45 73 -67 83
-183 82 -87 0 -114 -5 -187 -31 -109 -38 -217 -60 -231 -46 -5 5 -12 23 -14
39 -3 16 -8 45 -11 64 -3 19 -22 67 -42 108 -42 84 -40 87 48 98 117 13 197
42 305 108 22 14 47 25 56 26 9 0 37 16 62 35 l46 35 15 -27 c18 -36 54 -68
86 -78 14 -5 135 -11 270 -14 l245 -6 75 -35 c41 -19 107 -54 145 -78 171
-105 204 -125 263 -153 35 -16 105 -44 155 -60 51 -17 96 -35 102 -40 14 -13
41 -11 54 5 6 7 31 19 54 26 66 18 238 -10 347 -57 49 -21 198 -50 300 -57 47
-4 127 -16 179 -26 57 -12 134 -20 195 -20 56 0 119 -5 141 -11 22 -6 83 -15
135 -18 129 -10 259 -51 288 -91 29 -39 63 -56 142 -68 69 -11 212 -81 264
-129 15 -14 29 -23 31 -21 6 6 -64 145 -92 184 -12 16 -29 48 -38 70 -10 26
-34 54 -66 79 -81 61 -117 111 -131 177 -9 44 -16 58 -30 58 -9 0 -75 -14
-145 -31 l-128 -32 -289 2 c-159 1 -310 6 -335 12 -25 6 -83 15 -129 20 -45 5
-102 16 -125 25 -23 9 -58 19 -77 24 -19 5 -65 16 -102 25 -110 27 -85 55 77
90 113 25 306 107 395 170 41 29 118 76 170 105 80 44 113 71 208 169 l113
116 302 -3 c287 -4 306 -5 376 -28 40 -13 82 -24 92 -24 25 0 76 66 95 125 9
27 33 68 53 91 20 22 45 56 55 75 22 40 208 400 228 442 4 9 12 25 17 35 6 9
22 46 37 82 15 36 35 76 45 90 32 48 81 150 89 185 6 26 4 39 -6 50 -19 18
-111 29 -199 22 -160 -12 -239 -89 -240 -232 0 -62 4 -75 30 -115 17 -24 46
-55 65 -68 52 -35 56 -49 26 -81 -34 -35 -46 -79 -46 -162 0 -126 -32 -219
-76 -219 -7 0 -18 -8 -23 -19 -23 -42 -60 -54 -200 -62 -152 -10 -249 -22
-301 -38 -74 -23 -156 -6 -180 38 -5 11 -10 38 -10 60 0 23 -4 41 -10 41 -20
0 -9 46 27 110 89 160 112 210 128 280 10 41 26 92 36 112 11 21 19 51 19 68
0 20 15 53 41 92 59 86 73 154 54 255 -15 80 -36 119 -101 189 -43 45 -68 57
-125 56 -67 -1 -142 -59 -173 -134 -22 -51 -21 -247 0 -303 25 -63 27 -93 11
-128 -14 -29 -38 -113 -51 -178 -3 -14 -17 -42 -31 -63 -14 -20 -44 -72 -66
-114 -117 -218 -158 -265 -259 -297 -30 -9 -64 -23 -75 -29 -11 -7 -42 -20
-70 -30 -27 -9 -63 -25 -80 -34 -22 -13 -55 -17 -128 -17 l-99 0 -29 33 c-27
31 -34 33 -70 27 -46 -8 -49 1 -19 57 32 61 57 165 79 339 45 345 59 417 108
539 75 186 85 202 141 233 60 33 98 74 107 119 9 42 32 87 58 116 19 20 27 22
79 16 51 -6 62 -4 92 17 44 30 56 51 63 110 5 40 12 54 35 70 29 21 126 59
150 59 13 0 226 105 353 175 86 46 160 101 206 150 64 69 110 75 251 28 53
-17 221 -100 268 -132 14 -10 50 -30 80 -45 30 -16 80 -45 110 -65 30 -21 106
-64 167 -96 110 -56 137 -81 115 -108 -18 -22 -23 -75 -13 -115 8 -28 28 -55
71 -94 64 -60 62 -60 75 17 4 22 12 49 19 60 7 11 16 33 20 49 4 17 22 55 40
85 17 31 38 72 46 91 7 19 27 54 43 78 33 49 31 66 -10 76 -15 4 -59 26 -98
49 -129 76 -124 75 -325 82 -194 7 -229 14 -355 69 -32 15 -68 26 -82 26 -28
0 -98 36 -163 83 -159 116 -168 121 -246 128 -91 9 -204 36 -262 62 -62 28
-107 22 -322 -44 -19 -6 -83 -40 -142 -75 -59 -35 -115 -64 -124 -64 -15 0
-16 8 -11 60 12 112 83 243 159 295 68 45 196 105 226 105 35 0 52 -21 52 -64
0 -27 54 -96 74 -96 7 0 18 17 24 38 7 21 22 48 35 60 41 38 144 73 239 81 99
7 126 22 91 49 -20 16 -21 25 -20 128 1 124 -3 135 -62 160 -19 8 -69 50 -110
92 -59 60 -89 83 -136 102 -33 13 -73 33 -90 44 -46 32 -115 99 -115 112 0 18
-36 27 -60 14 -11 -6 -20 -13 -20 -16 0 -24 115 -235 139 -254 14 -12 101
-148 101 -159 0 -8 -21 -10 -77 -5 -127 10 -184 -5 -340 -88 -167 -89 -238
-154 -302 -276 -82 -159 -97 -246 -106 -621 l-5 -233 -36 -59 c-19 -32 -42
-59 -49 -59 -8 0 -30 17 -49 38 -35 36 -37 37 -109 37 -83 0 -125 -20 -168
-83 -20 -29 -23 -47 -23 -108 1 -65 5 -80 32 -124 18 -28 32 -57 32 -63 0 -6
-42 -52 -93 -102 -51 -49 -113 -112 -138 -140 -72 -80 -267 -253 -353 -313
-43 -31 -105 -80 -136 -109 -32 -29 -63 -53 -69 -53 -12 0 -16 305 -5 347 3
12 39 49 80 83 l75 61 74 -7 c93 -8 148 10 198 66 30 32 36 48 42 104 14 132
-12 230 -80 300 -45 45 -90 66 -143 66 -43 0 -57 -11 -68 -54 -3 -15 -21 -47
-38 -69 -17 -23 -39 -53 -48 -67 -9 -14 -29 -38 -43 -55 -15 -16 -38 -44 -52
-62 -13 -18 -44 -41 -68 -53 -73 -35 -130 -100 -185 -208 l-32 -63 -5 -287
c-3 -158 -9 -297 -14 -309 -4 -12 -37 -38 -73 -58 -104 -58 -214 -93 -328
-105 -57 -6 -118 -14 -137 -17 -31 -5 -33 -4 -26 18 5 13 73 122 152 242 80
120 142 222 138 225 -3 3 -15 1 -25 -6 -11 -7 -34 -12 -52 -12 -83 1 -139 84
-109 162 5 13 62 77 127 144 66 66 135 145 155 174 20 30 51 78 70 107 64 96
188 249 214 263 38 21 57 65 62 145 3 49 12 84 29 117 18 33 27 73 33 138 5
50 13 96 20 103 14 14 14 47 1 47 -38 0 -109 -64 -155 -140 -55 -89 -168 -256
-193 -282 -14 -15 -53 -38 -87 -52 -34 -13 -76 -33 -93 -43 -17 -10 -77 -46
-134 -79 -57 -34 -144 -84 -195 -110 -128 -67 -131 -62 -58 113 102 240 159
306 325 378 25 10 81 41 125 68 127 79 263 156 355 204 47 24 134 80 193 124
121 91 179 159 233 279 19 41 43 91 54 111 41 76 62 208 41 261 -6 13 -28 43
-50 68 -23 25 -41 49 -41 54 0 4 -13 36 -29 70 -15 33 -36 88 -45 121 -10 33
-25 80 -33 105 -11 31 -18 101 -22 225 -5 160 -8 180 -23 183 -17 3 -18 -11
-18 -180 -1 -240 -9 -619 -15 -685 -7 -73 -113 -293 -157 -327 -110 -86 -182
-133 -248 -164 -41 -19 -96 -50 -121 -68 -26 -19 -49 -34 -53 -34 -3 0 -55
-31 -115 -68 -102 -64 -114 -69 -181 -75 -50 -4 -84 -13 -113 -31 -68 -41
-194 -167 -222 -222 -78 -157 -236 -76 -204 105 10 55 51 174 90 259 11 24 24
78 30 120 14 106 47 223 69 247 10 11 26 37 37 57 10 20 31 63 47 95 28 54 30
67 34 198 4 130 2 149 -27 265 -28 114 -31 139 -31 292 0 186 -21 313 -64 378
-12 19 -30 60 -40 90 -10 30 -24 64 -31 76 -31 49 -84 195 -94 262 -6 41 -21
92 -34 114 -12 22 -32 59 -43 82 -36 69 -49 55 -52 -59 -4 -108 12 -249 35
-302 7 -19 17 -80 22 -136 11 -123 48 -342 63 -371 6 -11 14 -88 19 -171 6
-119 12 -162 31 -210 22 -57 23 -71 20 -280 -3 -287 -41 -531 -102 -655 -69
-143 -108 -227 -115 -250 -4 -14 -20 -50 -35 -80 -15 -30 -37 -93 -49 -140
-13 -47 -40 -141 -61 -210 -50 -164 -99 -334 -111 -387 -14 -59 -34 -60 -113
-8 -28 19 -65 46 -83 60 l-32 26 29 57 c16 31 38 93 50 137 12 44 38 109 58
144 88 153 102 178 113 211 7 22 14 149 19 340 7 338 -2 280 88 540 16 47 39
105 50 130 40 87 55 183 50 319 -4 102 -8 135 -26 173 -28 61 -28 101 4 250
20 95 25 138 20 189 -11 126 -132 397 -223 501 -94 108 -88 84 -88 337 0 208
-2 231 -23 288 -42 117 -89 180 -181 243 -46 32 -99 75 -120 97 -20 21 -58 56
-85 78 l-49 39 9 75 c5 42 9 135 8 206 0 152 -14 210 -82 355 -25 54 -30 420
-7 550 9 52 23 132 31 177 26 144 -11 209 -156 276 -74 34 -98 41 -190 48
-132 10 -224 10 -274 -2z m-3561 -3678 c6 -11 39 -73 74 -138 110 -201 137
-264 166 -378 15 -60 43 -144 62 -185 19 -41 38 -84 42 -95 48 -119 132 -253
195 -313 26 -23 46 -47 46 -54 0 -14 -111 -4 -142 13 -12 6 -70 29 -130 50
-101 35 -115 43 -186 110 -94 87 -106 108 -127 201 -17 77 -23 185 -28 571 -4
234 1 271 28 218z m3302 -703 c13 -12 23 -25 23 -29 0 -5 14 -29 31 -54 23
-35 35 -44 48 -39 9 4 36 9 61 11 40 4 49 1 77 -27 18 -17 52 -66 77 -108 25
-42 65 -98 89 -123 60 -63 83 -98 92 -139 10 -49 37 -99 81 -151 20 -24 45
-62 55 -84 10 -22 36 -67 59 -100 22 -33 40 -63 40 -67 0 -21 83 -133 150
-203 80 -83 154 -193 166 -248 4 -18 17 -52 29 -77 26 -50 50 -119 60 -167 6
-28 11 -33 36 -33 75 0 139 -59 139 -128 0 -19 21 -74 50 -133 28 -55 60 -125
72 -157 35 -95 66 -140 132 -187 33 -24 77 -60 96 -79 l34 -36 7 -218 7 -217
31 -63 c45 -91 49 -117 20 -148 -13 -14 -32 -30 -41 -35 -22 -12 -163 -37
-254 -45 -74 -6 -63 -11 -161 61 -12 9 -47 20 -78 24 -31 4 -62 14 -70 22 -27
28 -114 217 -154 333 -48 143 -74 175 -145 183 -94 11 -151 -42 -151 -142 1
-114 102 -360 242 -586 97 -158 113 -176 245 -275 69 -52 135 -107 145 -122
16 -23 19 -56 24 -247 6 -242 3 -228 87 -405 27 -58 68 -145 91 -194 23 -50
58 -113 79 -140 21 -28 49 -76 64 -106 54 -112 168 -224 342 -335 38 -25 92
-64 120 -88 139 -118 239 -187 272 -187 18 0 45 -5 61 -11 15 -6 51 -15 80
-19 29 -5 75 -20 103 -34 27 -14 72 -37 98 -50 27 -14 75 -29 108 -35 32 -5
81 -19 108 -31 28 -11 70 -23 95 -26 25 -3 64 -13 86 -24 22 -10 59 -26 83
-36 60 -24 92 -65 92 -116 0 -103 -75 -140 -212 -104 -36 9 -120 14 -263 15
-165 1 -220 4 -260 17 -27 9 -55 21 -62 26 -6 5 -63 20 -127 33 -63 13 -124
29 -135 35 -11 5 -48 13 -83 17 -35 3 -80 12 -102 20 -21 7 -62 13 -90 13 -28
0 -76 7 -106 15 -30 8 -83 15 -118 15 -44 0 -81 8 -125 26 -70 29 -206 55
-252 48 -16 -3 -60 -12 -96 -21 -37 -9 -74 -13 -83 -10 -9 4 -41 59 -72 124
-51 108 -70 151 -110 253 -30 76 -74 271 -93 414 -6 44 -16 85 -22 92 -26 31
-10 167 31 265 18 42 20 73 20 310 1 260 0 265 -25 324 -28 69 -31 108 -11
156 15 36 59 82 89 92 34 12 18 45 -49 102 -37 31 -77 63 -90 72 -26 17 -162
182 -187 228 -24 44 -47 173 -57 320 -10 153 -43 265 -114 379 -24 39 -53 89
-64 111 -11 22 -29 49 -41 59 -12 11 -21 27 -21 38 0 16 9 18 78 18 117 0 150
8 189 48 l35 34 -2 97 c-2 53 -2 119 -1 146 4 108 -51 300 -119 414 -16 29
-30 54 -30 57 0 3 -17 31 -38 62 -22 31 -47 75 -57 97 -10 22 -42 90 -71 152
-30 62 -54 115 -54 119 0 11 -88 212 -150 344 -32 69 -68 154 -79 190 -29 95
-83 234 -125 322 -20 42 -36 84 -36 92 0 23 30 20 57 -6z m-1103 -64 c9 -3 16
-11 16 -16 0 -17 121 -259 167 -335 40 -65 46 -82 59 -180 8 -59 22 -133 32
-163 14 -44 17 -94 17 -255 0 -226 7 -200 -96 -355 -46 -70 -63 -106 -69 -144
-4 -28 -15 -64 -24 -81 -9 -16 -16 -36 -16 -42 0 -14 -20 -18 -20 -5 -7 109
-10 116 -60 163 -36 32 -50 53 -50 72 0 59 -22 125 -50 152 -40 39 -115 46
-165 16 -20 -11 -43 -21 -50 -21 -8 0 -37 23 -65 52 -47 48 -50 55 -50 101 0
40 9 66 44 132 39 73 106 247 106 278 0 6 14 40 31 75 26 51 36 62 53 60 15
-2 25 -15 33 -43 72 -241 86 -277 111 -300 62 -58 155 -55 206 6 48 56 38 131
-54 409 -21 63 -45 151 -55 195 -21 99 -36 147 -50 160 -19 16 -36 55 -30 65
7 12 8 12 29 4z m-1034 -485 c6 -10 10 -28 10 -40 0 -19 -4 -21 -31 -15 -17 3
-55 6 -83 6 -28 0 -58 5 -66 10 -26 16 18 48 80 58 63 10 77 7 90 -19z m43
-479 c10 -17 20 -38 22 -48 2 -9 6 -26 10 -37 8 -26 -61 50 -81 88 -14 26 -13
27 9 27 15 0 29 -10 40 -30z m435 -406 c12 -8 40 -41 61 -72 22 -31 67 -85
102 -120 l62 -63 -6 -153 c-7 -185 -15 -211 -121 -399 -42 -74 -76 -138 -76
-143 0 -10 -41 -54 -51 -54 -4 0 -6 179 -6 398 1 265 -2 431 -10 500 -7 57
-10 108 -7 113 8 13 27 11 52 -7z m2026 -206 c19 -29 58 -202 50 -221 -6 -18
-131 -34 -146 -19 -6 6 -4 23 6 46 8 20 22 77 32 126 17 95 30 110 58 68z
m-1404 -39 c0 -22 -62 -235 -87 -302 -17 -43 -29 -63 -34 -55 -11 18 -1 257
13 290 5 15 18 30 28 33 9 3 25 14 35 25 20 22 45 27 45 9z m4886 -381 c-11
-147 -45 -348 -68 -401 -47 -113 -92 -161 -216 -236 -69 -41 -79 -45 -175 -52
-56 -5 -124 -13 -150 -19 -26 -5 -75 -10 -107 -10 l-60 0 0 34 c0 19 4 37 9
40 5 4 14 29 20 57 23 106 56 145 191 224 36 21 97 68 135 105 39 37 104 91
145 121 41 30 117 91 169 137 51 45 98 82 104 82 6 0 8 -30 3 -82z m-3933 -69
c120 -48 114 -42 179 -169 27 -51 51 -83 76 -100 58 -40 133 -165 176 -293 16
-49 22 -173 8 -193 -4 -6 -31 -17 -60 -24 -67 -16 -211 -90 -282 -146 -30 -24
-68 -53 -83 -65 -16 -12 -41 -49 -58 -83 -16 -33 -42 -76 -59 -95 -54 -61 -25
-95 35 -42 l36 31 133 0 c118 0 136 2 159 20 28 23 77 27 77 7 0 -21 46 -111
74 -144 33 -39 33 -52 -2 -64 -19 -6 -31 -20 -38 -41 -5 -17 -21 -40 -36 -52
-38 -27 -132 -33 -197 -12 -27 9 -60 16 -72 16 -18 0 -20 -4 -14 -22 14 -48
17 -68 9 -68 -5 0 -52 -3 -105 -5 l-97 -5 -30 52 c-38 68 -53 81 -181 154
-128 73 -145 97 -137 187 3 32 26 117 51 190 70 201 72 208 83 262 6 28 13 99
17 158 7 130 18 191 44 249 10 24 31 70 46 103 47 108 121 199 169 208 11 2
22 5 24 6 2 0 27 -8 55 -20z m-1613 -684 c14 -8 42 -14 62 -15 20 0 39 -4 43
-9 3 -6 -12 -45 -34 -88 -22 -43 -43 -90 -46 -106 -4 -15 -17 -34 -28 -42 -24
-17 -132 -21 -142 -5 -3 5 7 40 23 77 16 37 32 82 36 98 27 115 33 121 86 90z
m6003 -50 c38 -26 43 -43 29 -93 -16 -53 -158 -164 -257 -201 -33 -13 -75 -32
-94 -43 -51 -32 -230 -67 -339 -68 l-92 0 -7 -31 c-8 -41 -25 -46 -92 -24
-141 47 -212 78 -231 102 -30 38 -26 88 9 124 34 33 25 32 301 34 196 1 302
17 364 54 17 10 54 27 81 37 28 10 86 44 130 76 94 68 135 75 198 33z m-1363
-80 c0 -8 -9 -15 -20 -15 -20 0 -26 11 -13 23 12 13 33 7 33 -8z m-4815 -409
c16 -8 57 -18 92 -22 35 -3 71 -13 79 -21 28 -29 15 -45 -66 -75 -36 -14 -113
-44 -171 -67 -107 -41 -139 -49 -139 -32 0 8 86 130 99 141 4 3 15 24 25 48
21 46 36 51 81 28z m2347 -448 c18 -16 58 -81 58 -97 0 -6 -15 -11 -32 -11
-39 0 -128 70 -128 101 0 16 7 19 43 19 24 0 50 -6 59 -12z m2366 -1477 c59
-37 116 -71 127 -75 11 -3 38 -22 60 -41 l40 -34 -30 0 c-70 -1 -232 76 -256
120 -5 10 -15 24 -21 31 -14 15 -38 55 -38 63 0 11 14 3 118 -64z"/>
<path d="M6903 9307 c-25 -9 -35 -20 -46 -55 l-15 -44 98 -98 c118 -118 165
-182 189 -261 14 -46 14 -302 -1 -449 -15 -155 -16 -219 -7 -320 7 -68 13 -88
30 -102 12 -10 25 -18 29 -18 15 0 100 184 94 205 -7 28 106 350 155 438 50
90 64 148 62 257 -2 96 -13 136 -57 200 -17 25 -36 59 -43 77 -14 35 -18 37
-104 52 -32 6 -63 13 -68 17 -5 3 -37 10 -71 14 -34 5 -64 13 -67 18 -5 7 -68
33 -120 48 -11 4 -10 8 5 19 18 14 18 14 -6 13 -14 0 -39 -6 -57 -11z"/>
<path d="M9913 9051 c6 -22 14 -38 18 -36 7 5 -13 75 -22 75 -3 0 -1 -18 4
-39z"/>
<path d="M9930 8980 c0 -14 7 -53 15 -88 8 -35 13 -68 9 -73 -3 -5 3 -9 12 -9
10 0 14 -3 11 -7 -8 -8 12 -33 26 -33 7 0 7 4 -1 12 -7 7 -12 22 -12 35 0 13
-9 56 -20 95 -21 77 -40 109 -40 68z"/>
<path d="M9920 8762 c0 -26 4 -41 10 -37 13 8 13 45 0 65 -7 11 -10 3 -10 -28z"/>
<path d="M10065 8771 c-3 -5 -1 -12 5 -16 5 -3 10 1 10 9 0 18 -6 21 -15 7z"/>
<path d="M0 8618 l0 -153 41 -84 c22 -46 51 -122 65 -170 14 -47 29 -98 34
-113 16 -51 102 -168 219 -298 22 -25 50 -64 62 -87 11 -24 25 -43 30 -43 9 0
1 55 -12 81 -5 9 -15 51 -24 94 -9 42 -30 114 -46 159 -17 44 -44 126 -60 181
-28 94 -30 108 -26 229 4 123 3 132 -20 179 -51 100 -149 177 -228 177 l-35 0
0 -152z"/>
<path d="M12088 8518 c-3 -7 10 -23 29 -36 18 -12 33 -30 33 -38 0 -9 14 -29
30 -46 17 -16 37 -42 45 -57 7 -15 38 -52 67 -83 29 -31 68 -75 87 -98 33 -41
34 -43 28 -115 l-7 -74 36 -22 c34 -21 38 -21 63 -6 43 25 131 56 180 63 93
13 146 33 184 72 33 34 36 43 42 112 4 53 2 87 -8 115 -15 41 -13 40 -142 103
-16 8 -39 23 -50 33 -17 14 -41 18 -144 20 -94 2 -137 7 -175 22 -28 10 -89
23 -136 27 -47 5 -101 12 -121 16 -26 4 -38 2 -41 -8z"/>
<path d="M7517 8278 c-15 -29 -34 -73 -42 -98 -9 -25 -29 -68 -45 -97 -30 -53
-39 -93 -20 -93 5 0 18 -12 27 -27 16 -24 19 -61 23 -303 3 -191 8 -263 14
-235 5 22 21 60 37 84 16 25 29 54 29 66 0 12 13 39 30 59 28 36 41 70 74 200
9 34 27 71 41 86 l25 26 -21 114 c-34 182 -37 191 -82 233 -22 20 -46 37 -52
37 -6 0 -24 -24 -38 -52z"/>
<path d="M7124 7784 c-7 -3 -10 -28 -7 -72 4 -48 -1 -92 -16 -155 -12 -48 -19
-92 -16 -97 3 -5 -2 -28 -11 -52 -15 -38 -17 -110 -21 -573 -3 -291 -5 -548
-4 -570 2 -68 106 -198 169 -210 20 -4 55 -16 79 -27 37 -17 58 -20 138 -16
82 3 98 7 120 28 14 13 25 29 25 37 0 7 4 13 9 13 5 0 12 19 15 43 3 23 7 48
8 55 1 6 4 12 7 12 21 0 43 111 61 305 5 55 14 143 20 195 5 52 10 154 10 226
0 72 4 155 10 185 5 30 12 101 14 159 5 123 6 132 16 145 10 14 23 121 21 168
-2 20 2 37 7 37 5 0 9 19 10 43 1 23 6 57 11 75 9 28 7 32 -10 32 -10 0 -19 6
-20 13 -1 13 -25 -73 -38 -138 -19 -88 -53 -222 -66 -255 -7 -19 -16 -47 -19
-62 -4 -16 -10 -28 -15 -28 -5 0 -7 -8 -4 -19 2 -10 -9 -49 -26 -86 -17 -37
-31 -73 -31 -80 0 -7 -7 -18 -15 -25 -8 -7 -15 -20 -15 -29 0 -9 -7 -29 -16
-46 -9 -16 -27 -57 -41 -90 -14 -33 -33 -71 -43 -85 -9 -14 -33 -54 -52 -90
-18 -36 -38 -72 -43 -80 -6 -8 -14 -33 -20 -54 -12 -46 -32 -61 -67 -53 -29 8
-63 79 -74 157 -4 25 -10 50 -14 55 -5 6 -8 33 -8 60 0 28 -6 84 -12 125 -16
107 -11 547 7 634 17 86 14 190 -7 193 -8 1 -20 0 -26 -3z"/>
<path d="M18267 7542 c-17 -20 -31 -72 -20 -72 14 0 63 50 63 64 0 22 -27 26
-43 8z"/>
<path d="M13651 7514 c-6 -14 -11 -32 -11 -40 0 -8 -20 -36 -43 -62 -40 -43
-73 -104 -144 -261 -13 -30 -33 -65 -43 -79 -26 -33 -41 -89 -30 -116 7 -18 3
-24 -19 -34 -15 -7 -38 -31 -51 -55 -12 -23 -29 -49 -36 -57 -7 -9 -50 -88
-95 -175 -46 -88 -106 -194 -135 -236 -29 -43 -58 -96 -64 -120 -13 -49 -51
-125 -92 -186 -15 -23 -28 -45 -28 -50 0 -4 -17 -26 -37 -49 -39 -42 -78 -104
-115 -184 -36 -78 -101 -203 -129 -250 -15 -25 -44 -74 -65 -110 -24 -42 -75
-102 -144 -170 -98 -96 -121 -124 -195 -230 -101 -146 -95 -130 -95 -247 l0
-107 52 -80 c67 -105 84 -123 138 -151 52 -27 135 -110 177 -175 29 -47 103
-120 120 -120 6 0 17 -9 24 -21 17 -24 75 -38 164 -39 112 0 191 37 224 105
49 99 71 202 76 338 2 73 13 185 24 249 12 64 21 155 21 201 0 80 30 268 50
312 25 57 49 137 55 190 4 33 25 104 46 158 21 54 43 133 50 175 7 42 23 100
35 127 12 28 28 77 35 110 13 57 50 138 70 150 5 4 9 16 9 28 0 29 37 186 65
277 13 41 26 90 29 107 3 18 14 52 25 75 10 24 22 58 26 75 3 18 11 35 16 38
5 4 9 24 9 46 0 21 4 39 9 39 5 0 11 21 14 48 2 26 12 72 21 102 11 40 16 96
16 203 0 91 4 147 10 147 6 0 10 25 10 55 0 43 -4 56 -19 64 -15 8 -20 6 -30
-15z"/>
<path d="M17405 7040 c-235 -65 -244 -70 -296 -140 -17 -23 -29 -55 -34 -90
-15 -115 -51 -160 -140 -175 -22 -4 -53 -11 -70 -17 -27 -10 -47 -18 -142 -59
-18 -8 -33 -19 -33 -26 0 -7 -31 -37 -70 -68 -38 -31 -86 -80 -107 -108 -36
-51 -113 -196 -113 -214 0 -5 -11 -37 -24 -71 l-25 -62 104 0 c89 0 106 3 114
18 8 13 10 6 10 -33 0 -39 -2 -46 -10 -32 -10 17 -45 22 -86 11 -20 -6 -23
-13 -23 -55 l0 -49 50 0 c36 0 52 5 59 18 8 13 10 7 10 -28 0 -25 -3 -39 -6
-32 -3 8 -37 12 -118 12 -98 0 -115 -2 -124 -17 -8 -14 -10 -7 -10 32 0 39 2
46 10 33 7 -13 23 -18 59 -18 l50 0 0 50 0 50 -55 0 c-30 0 -55 -5 -55 -10 0
-6 -26 -49 -57 -97 -116 -173 -158 -266 -177 -388 -10 -62 -25 -113 -57 -197
-17 -47 -31 -106 -35 -150 -6 -81 -28 -177 -50 -220 -19 -37 -18 -48 9 -49 19
-1 19 -2 -8 -14 -17 -7 -32 -23 -36 -36 -15 -58 44 -82 76 -31 36 56 68 82
100 82 46 0 67 -27 63 -84 l-3 -46 -40 1 -40 0 32 16 c37 19 50 47 32 69 -20
25 -51 12 -87 -36 -47 -62 -72 -74 -115 -56 l-34 14 -12 -77 c-8 -42 -15 -88
-18 -103 -2 -15 -10 -47 -18 -70 -13 -40 -14 -40 -9 -8 3 19 7 98 8 175 3 102
8 152 21 185 9 25 19 57 21 72 2 15 17 73 34 129 30 103 32 129 6 93 -16 -21
-112 -345 -121 -406 -39 -273 -46 -295 -149 -492 -90 -172 -123 -250 -141
-339 -13 -60 -13 -156 0 -177 3 -5 1 -20 -4 -33 -6 -16 -7 -38 -1 -59 15 -49
20 -254 9 -323 -6 -33 -12 -76 -15 -95 -3 -19 -9 -51 -13 -71 -5 -20 -7 -85
-6 -145 3 -188 39 -258 199 -388 87 -70 103 -90 146 -171 23 -44 53 -98 66
-121 l24 -41 80 -2 c65 -2 81 1 86 14 11 29 -15 45 -75 45 -31 0 -62 -5 -69
-12 -9 -9 -12 -5 -12 18 l0 30 71 -4 c53 -3 74 -1 80 9 8 12 11 12 19 -1 13
-20 13 -40 -1 -40 -5 0 -3 -10 5 -22 20 -28 20 -33 0 -52 -11 -11 -35 -16 -79
-16 -35 0 -66 -4 -69 -9 -9 -14 90 -156 157 -225 71 -72 121 -108 227 -161 41
-21 89 -48 106 -61 17 -13 34 -24 37 -24 23 0 207 -151 274 -224 34 -37 61
-81 84 -137 30 -73 40 -86 90 -123 31 -22 64 -52 73 -66 13 -20 16 -22 16 -7
0 28 -19 59 -64 99 -23 21 -36 38 -30 38 6 0 21 -12 35 -26 28 -31 96 -64 116
-57 9 4 13 -5 13 -31 0 -35 30 -105 54 -125 7 -6 38 -23 68 -39 l56 -28 22 33
c12 18 30 35 39 38 23 7 81 90 86 123 32 194 31 208 -21 358 l-49 139 2 191
c2 182 14 284 43 358 6 16 8 31 5 34 -3 3 -37 1 -75 -5 -68 -11 -73 -10 -129
17 -60 29 -108 76 -115 113 -23 114 -23 273 1 299 8 9 21 14 28 12 18 -7 35
-58 35 -104 0 -61 19 -70 152 -70 142 0 208 8 215 27 10 25 -17 31 -112 26
-85 -5 -94 -4 -114 16 -14 14 -21 33 -21 62 0 68 -9 75 -101 83 -68 6 -85 12
-104 32 -30 32 -43 87 -37 157 4 52 9 62 51 106 l46 48 117 13 c122 14 273 9
341 -10 27 -8 41 -19 48 -38 5 -15 16 -39 24 -54 34 -60 6 -190 -48 -220 -12
-7 -73 -17 -136 -23 l-115 -10 -7 -29 c-12 -44 4 -56 73 -56 56 0 63 2 92 35
40 43 58 44 87 4 l22 -32 29 34 c42 50 84 126 122 220 27 68 56 168 56 195 0
2 -11 -3 -25 -12 -25 -16 -27 -16 -88 32 -34 26 -78 61 -97 76 -19 16 -58 48
-87 71 -28 23 -71 56 -95 74 -24 18 -64 48 -89 67 -45 33 -47 33 -70 17 -63
-44 -198 -196 -186 -207 3 -3 92 4 197 16 l192 22 24 -23 c34 -32 30 -45 -21
-68 -25 -11 -45 -25 -45 -30 0 -6 -7 -11 -15 -11 -8 0 -15 4 -15 8 0 11 -61
33 -72 26 -5 -3 -39 -6 -75 -6 -35 0 -81 -4 -100 -9 -28 -6 -46 -3 -80 13 -24
11 -45 19 -46 17 -2 -2 -29 -39 -61 -82 -57 -78 -57 -78 -99 -75 -34 2 -43 7
-45 24 -4 26 64 112 206 262 59 63 111 121 116 130 18 35 121 132 140 132 10
0 43 -20 72 -45 29 -25 64 -51 78 -59 14 -7 43 -31 66 -54 22 -23 72 -63 111
-88 100 -64 170 -120 197 -157 12 -17 23 -26 23 -19 1 7 2 15 3 20 1 4 8 45
15 92 7 47 17 99 21 115 5 17 11 50 14 75 4 25 8 56 10 70 3 14 7 50 10 80 4
30 8 69 11 85 3 17 7 41 9 55 9 51 27 127 46 185 11 37 21 103 24 170 2 61 7
126 11 145 3 19 20 107 36 195 17 88 41 221 54 295 14 74 27 144 29 155 2 11
7 45 11 75 4 30 9 64 11 75 3 11 7 102 10 201 5 188 -3 247 -32 223 -26 -22
18 107 59 171 40 62 42 68 41 140 -1 58 1 70 9 53 5 -13 13 -23 17 -23 12 0
20 44 9 51 -5 3 -9 10 -8 15 6 21 -15 120 -36 175 -13 33 -42 82 -64 108 -39
46 -41 53 -41 112 0 110 42 249 75 249 12 0 13 4 4 19 -10 14 -9 23 4 42 10
13 17 32 17 44 0 31 -62 115 -85 115 -13 1 -27 14 -40 43 -20 42 -74 87 -104
87 -9 -1 -2 -7 14 -15 l30 -14 -41 6 c-31 4 -54 -1 -97 -22 -51 -24 -64 -26
-126 -19 -39 3 -69 9 -68 13 1 3 -19 26 -45 50 -27 24 -57 59 -69 77 -36 58
-100 77 -184 54z m-242 -695 l37 -24 29 24 c30 26 101 35 101 13 0 -6 -18 -28
-40 -48 -22 -20 -40 -40 -40 -44 0 -4 16 -22 35 -40 31 -29 35 -39 35 -82 0
-38 -5 -54 -21 -68 -16 -13 -20 -26 -16 -49 3 -24 34 -108 53 -145 1 -1 36 -7
78 -11 69 -8 82 -13 124 -48 26 -22 55 -55 65 -74 46 -94 87 -251 91 -349 1
-31 -2 -35 -26 -38 -28 -3 -39 17 -54 103 -4 22 -11 49 -17 59 -5 11 -15 47
-22 81 -16 76 -57 159 -88 179 -23 15 -269 38 -342 32 -22 -2 -56 -4 -76 -5
-47 -1 -103 -45 -123 -96 -22 -53 -44 -169 -55 -283 -7 -76 -13 -98 -32 -118
-26 -28 -41 -30 -59 -9 -10 12 -8 33 9 107 12 51 26 116 32 143 5 28 14 66 19
85 5 19 12 52 15 73 4 26 20 54 48 84 34 37 46 44 68 39 19 -3 32 1 45 15 10
11 25 18 34 16 12 -3 16 4 16 29 0 24 10 42 37 70 20 21 37 45 37 53 0 20 -36
72 -65 93 -22 17 -26 16 -101 -17 -81 -35 -97 -52 -69 -75 12 -10 29 -11 83
-2 70 12 86 7 80 -24 -5 -31 -65 -54 -140 -54 -65 0 -68 1 -95 37 -28 37 -28
37 -26 186 1 122 4 153 17 166 20 20 49 5 54 -28 5 -32 25 -35 71 -12 50 26
77 27 90 2 13 -23 -9 -45 -60 -63 -57 -19 -109 -56 -103 -73 4 -8 9 -15 14
-15 11 0 72 20 97 32 12 6 33 8 47 4 21 -5 31 1 62 40 l38 46 -49 44 c-41 36
-47 45 -35 54 25 16 55 12 93 -15z m448 -34 c6 -15 14 -83 17 -152 4 -106 2
-131 -13 -163 -22 -46 -39 -55 -118 -63 -48 -4 -71 -2 -96 11 -51 27 -38 49
34 59 81 12 112 25 119 50 8 33 -12 47 -66 47 -54 0 -108 22 -108 44 0 22 66
39 121 32 47 -6 49 -6 49 18 0 33 -12 39 -94 43 -53 3 -76 9 -90 22 -31 32
-11 43 73 41 101 -3 101 -4 101 24 0 45 47 36 71 -13z m-1156 -525 c19 -8 40
-27 47 -41 27 -59 -67 -115 -136 -82 -59 28 -61 92 -4 120 41 20 50 21 93 3z
m915 -66 c15 -16 33 -43 40 -60 16 -39 -3 -71 -60 -100 -45 -23 -71 -25 -88
-8 -15 15 12 48 38 48 23 0 52 34 45 52 -11 29 -49 37 -125 27 -40 -5 -79 -14
-86 -20 -35 -29 -3 -81 65 -104 59 -19 78 -39 83 -85 2 -28 8 -36 26 -38 29
-4 74 13 124 46 42 27 68 24 68 -10 -1 -29 -69 -82 -142 -110 -67 -25 -68 -26
-72 -79 -10 -156 -61 -239 -119 -195 -16 13 -16 16 3 59 24 53 37 131 31 176
0 5 -30 19 -65 31 -76 25 -139 68 -166 113 -16 26 -17 34 -6 45 11 11 28 5
102 -37 86 -50 126 -61 139 -41 14 22 -7 50 -46 60 -22 6 -58 27 -81 48 -37
34 -40 39 -34 77 5 29 16 49 44 73 20 18 46 35 57 37 76 18 106 23 148 24 42
1 53 -3 77 -29z m-867 -110 c3 -14 0 -20 -10 -20 -14 0 -14 -2 0 -18 39 -43
13 -72 -66 -72 -32 0 -67 -5 -78 -10 -17 -10 -19 -7 -19 21 0 24 3 29 13 21 6
-5 30 -8 52 -7 22 2 50 4 63 4 24 1 30 29 10 49 -14 14 -102 16 -126 3 -14 -7
-17 -4 -18 18 l-1 26 79 -4 c55 -2 78 0 78 9 0 17 17 3 23 -20z m-197 -154
c12 -9 23 -11 30 -5 8 6 21 5 38 -2 20 -10 29 -10 38 -1 17 17 53 15 78 -6 20
-16 22 -24 15 -70 -4 -29 -11 -52 -16 -52 -5 0 -9 5 -9 10 0 6 -12 10 -27 10
-39 0 -54 12 -62 50 -10 50 -31 50 -31 0 0 -77 -32 -100 -82 -60 -32 24 -40
65 -23 107 16 37 23 39 51 19z m154 -266 c91 0 111 3 118 16 7 13 10 9 14 -20
2 -21 0 -39 -4 -42 -4 -3 -8 0 -8 5 0 6 -21 11 -50 11 -27 0 -50 -3 -49 -7 0
-10 79 -73 90 -73 5 0 9 6 9 13 0 8 4 7 10 -3 9 -13 14 -70 7 -70 -1 0 -29 25
-62 56 l-59 56 -69 -71 c-38 -39 -70 -71 -71 -71 0 0 -2 23 -3 50 -1 44 1 49
14 39 12 -10 23 -4 61 34 l47 47 -47 0 c-29 0 -52 -6 -62 -16 -15 -14 -16 -11
-16 33 1 37 3 44 11 31 9 -15 26 -18 119 -18z m34 -241 c79 -62 -28 -154 -123
-104 -48 24 -54 63 -16 100 32 33 100 35 139 4z m779 -11 c17 -23 21 -50 28
-180 6 -132 18 -208 32 -208 21 0 81 30 121 59 59 44 81 90 97 207 8 53 17 88
26 91 24 9 59 -6 73 -32 11 -21 11 -33 -3 -82 -9 -32 -19 -74 -22 -93 -3 -19
-17 -59 -31 -87 -22 -45 -36 -59 -96 -95 -39 -23 -94 -50 -122 -59 l-51 -18
-3 -85 c-4 -110 -6 -108 186 -104 l147 3 3 -27 c4 -35 -3 -37 -185 -42 -79 -3
-146 -7 -151 -9 -7 -5 0 -130 14 -245 7 -59 21 -63 200 -52 172 11 224 6 224
-20 0 -36 -23 -41 -202 -41 -95 0 -218 -4 -273 -9 -91 -9 -141 -14 -380 -39
-92 -9 -115 -2 -115 37 0 47 13 52 134 45 145 -7 282 8 302 33 12 16 13 42 8
144 -3 69 -10 129 -15 134 -11 12 -97 13 -215 2 -98 -9 -134 0 -134 34 0 28
56 40 196 40 143 0 152 4 154 75 3 90 0 116 -12 120 -108 37 -138 53 -185 98
-69 65 -109 126 -133 205 -34 111 -23 152 38 131 27 -9 32 -17 47 -82 21 -89
52 -145 107 -191 43 -37 102 -56 120 -38 7 7 7 67 0 192 -11 194 -7 224 32
218 10 -2 28 -15 39 -30z m-846 -148 c35 0 63 4 63 10 0 16 17 11 24 -7 4 -9
1 -20 -6 -24 -10 -7 -10 -11 0 -21 6 -6 12 -22 12 -35 0 -30 -33 -43 -110 -43
-37 0 -60 -4 -63 -12 -3 -7 -6 5 -6 27 -1 30 2 36 11 27 15 -15 120 -16 136 0
7 7 8 17 1 30 -8 15 -22 18 -74 18 -41 0 -65 -4 -68 -12 -3 -7 -6 5 -6 27 -1
30 2 36 11 27 7 -7 39 -12 75 -12z m-312 -134 l30 -16 -32 0 c-32 0 -33 -1
-33 -45 l0 -44 -72 -3 c-70 -3 -73 -4 -73 -28 0 -24 2 -25 73 -25 62 0 72 -2
72 -17 0 -16 -10 -18 -70 -18 -56 0 -72 -3 -77 -16 -5 -14 -8 -12 -19 7 -13
26 -9 43 8 33 6 -4 4 3 -5 17 -37 53 -6 79 93 79 51 0 60 3 60 18 0 35 -15 44
-61 39 -24 -3 -52 -6 -61 -6 -10 -1 -18 -8 -18 -17 0 -21 -24 -12 -28 10 -6
28 8 34 85 38 53 2 74 6 78 17 4 11 8 12 13 4 4 -7 21 -19 37 -27z m247 -26
c15 0 29 -4 33 -10 4 -6 17 -5 35 5 21 11 36 12 54 5 38 -14 49 -42 34 -90
-12 -37 -28 -54 -28 -29 0 5 -8 9 -17 8 -33 -5 -63 12 -69 39 -10 48 -14 56
-24 46 -5 -5 -10 -31 -12 -59 -3 -48 -4 -50 -34 -53 -56 -5 -94 72 -63 130 8
15 17 19 37 13 15 -3 39 -6 54 -5z m-311 -223 c27 -19 34 -30 33 -54 -2 -30
-1 -30 40 -22 39 7 55 0 56 -23 0 -5 -33 -8 -72 -9 -77 -1 -155 -7 -175 -14
-7 -2 -17 4 -23 15 -7 13 -6 20 3 23 9 3 9 7 -1 20 -18 22 -7 54 26 72 39 21
74 18 113 -8z m545 -17 c11 0 14 -19 14 -90 l0 -90 -27 0 c-25 0 -25 1 -9 13
17 13 20 65 4 60 -5 -2 -55 -3 -112 -3 -91 0 -105 -2 -109 -17 -3 -10 -5 5 -6
32 0 28 3 45 7 38 9 -15 19 -16 135 -14 95 1 97 1 97 25 0 13 -10 31 -22 40
-18 13 -19 16 -5 12 10 -3 25 -6 33 -6z m-528 -156 c42 -27 21 -104 -29 -104
-16 0 -19 7 -19 50 0 53 -4 57 -44 38 -34 -15 -42 -44 -20 -69 12 -14 13 -19
4 -19 -41 0 -67 73 -36 99 37 31 98 33 144 5z m380 -84 c27 -40 67 -49 67 -15
0 13 -8 21 -23 23 -23 3 -26 22 -5 29 35 12 61 -88 27 -101 -9 -3 -42 -6 -75
-6 -48 0 -59 -3 -59 -16 0 -14 -3 -14 -15 -4 -18 15 -20 37 -2 43 10 4 10 7 0
18 -14 14 -17 51 -6 63 4 4 21 6 37 4 22 -2 37 -13 54 -38z m-363 -51 c4 -13
2 -25 -5 -29 -9 -5 -9 -9 -1 -14 17 -11 13 -54 -6 -65 -10 -5 -51 -10 -90 -13
-68 -3 -73 -2 -73 17 0 19 5 20 75 17 62 -4 76 -1 81 12 13 34 -15 48 -88 44
-63 -3 -68 -1 -68 17 0 19 5 20 75 17 51 -3 75 -1 75 7 0 19 18 12 25 -10z
m448 -101 c-2 -5 -39 -8 -82 -8 -46 0 -82 -5 -89 -12 -9 -9 -12 -3 -12 27 0
30 3 36 12 27 19 -19 137 -16 145 4 4 12 8 11 18 -8 6 -13 10 -26 8 -30z m94
16 c5 -15 -28 -27 -40 -15 -5 5 -6 14 -2 21 8 13 37 9 42 -6z m-97 -85 c0 -16
-4 -28 -9 -25 -10 7 -101 -23 -101 -33 0 -4 15 -12 34 -19 35 -13 66 -8 66 11
0 22 14 -4 15 -28 0 -17 -4 -24 -12 -20 -8 2 -34 -4 -60 -14 l-46 -18 47 -16
c26 -9 53 -14 61 -10 9 3 15 -1 15 -11 0 -9 -1 -16 -2 -16 -2 0 -25 7 -53 15
-27 9 -67 20 -87 26 -36 9 -52 28 -25 30 6 0 30 8 52 18 l40 18 -53 17 c-28
10 -52 21 -52 26 0 5 36 20 80 35 44 15 80 31 80 36 0 5 2 9 5 9 3 0 5 -14 5
-31z m-412 -27 c-21 -2 -28 -9 -29 -25 -2 -21 -2 -21 -6 1 -4 21 -9 23 -71 20
-57 -3 -67 -6 -66 -21 2 -22 -15 -18 -30 7 -18 29 17 46 96 46 37 0 68 4 68
10 0 5 15 -1 33 -13 l34 -22 -29 -3z m-57 -191 c62 -20 114 -42 116 -47 2 -5
-47 -27 -109 -48 -62 -22 -121 -46 -130 -54 -17 -14 -18 -12 -18 22 0 33 2 37
20 31 13 -4 31 0 45 9 41 27 28 88 -21 100 -18 5 -30 3 -35 -6 -6 -8 -9 -1 -9
21 0 27 2 31 14 22 8 -7 65 -29 127 -50z m367 -7 c12 -8 29 -28 37 -45 16 -31
33 -37 52 -18 16 16 5 39 -18 39 -10 0 -19 7 -19 15 0 20 24 19 44 -1 19 -18
21 -65 4 -82 -7 -7 -39 -12 -75 -12 -53 0 -63 -3 -63 -17 0 -16 -1 -16 -17 0
-14 13 -15 21 -7 35 8 13 8 22 -3 39 -13 19 -12 24 6 42 25 25 30 26 59 5z
m19 -154 c35 0 63 4 63 10 0 16 17 11 24 -7 4 -9 2 -20 -5 -23 -8 -5 -7 -14 5
-32 26 -40 4 -59 -80 -65 -38 -3 -75 -10 -81 -16 -10 -7 -13 0 -13 29 0 30 3
35 12 26 16 -16 110 -15 133 2 16 12 17 16 6 30 -17 20 -136 23 -144 4 -3 -7
-6 5 -6 27 -1 30 2 36 11 27 7 -7 39 -12 75 -12z m-497 -45 c-23 -24 -23 -26
-6 -43 16 -16 19 -15 54 26 41 47 72 54 95 22 22 -31 10 -70 -20 -70 l-25 0
23 18 c14 12 20 25 16 35 -10 27 -32 20 -58 -20 -29 -45 -59 -57 -88 -37 -15
11 -21 26 -21 55 0 36 2 39 27 39 l26 0 -23 -25z m7 -123 c-20 -22 -22 -48 -5
-58 7 -4 26 10 47 35 22 25 44 41 58 41 30 0 56 -28 49 -54 -3 -12 -6 -24 -6
-28 0 -5 -10 -8 -22 -8 -21 1 -21 2 -5 11 9 5 17 19 17 30 0 27 -31 37 -44 14
-30 -51 -59 -76 -80 -69 -30 9 -46 33 -46 71 0 29 3 33 27 33 25 0 25 -1 10
-18z m567 -3 c14 -11 26 -28 26 -38 0 -28 -30 -61 -56 -61 -22 0 -24 4 -24 51
0 48 -1 50 -22 43 -51 -15 -63 -51 -30 -87 17 -19 17 -20 -15 -3 -44 22 -53
59 -22 92 30 32 104 34 143 3z m-433 -135 c44 -40 1 -114 -66 -114 -78 0 -125
53 -91 105 29 45 112 50 157 9z m311 -10 c-24 -17 -29 -49 -9 -57 18 -7 28 1
56 41 38 55 106 38 99 -25 -2 -23 -8 -28 -33 -30 -29 -3 -29 -2 -7 9 15 7 22
19 20 31 -5 35 -26 30 -53 -12 -22 -35 -30 -41 -60 -41 -41 0 -60 26 -50 71 5
23 12 29 33 29 l26 0 -22 -16z m124 -129 c42 -27 22 -105 -28 -105 -15 0 -18
8 -18 50 0 53 -3 56 -43 41 -34 -13 -44 -47 -21 -72 21 -23 7 -25 -24 -3 -39
27 -24 87 28 107 23 9 79 0 106 -18z m-442 -16 c42 -33 31 -99 -16 -99 -10 0
-18 7 -18 15 0 8 6 15 14 15 7 0 19 6 25 14 30 36 -61 62 -107 30 -28 -20 -28
-47 1 -68 21 -15 20 -15 -13 -3 -36 14 -46 33 -36 71 11 46 103 62 150 25z
m20 -145 c12 -31 5 -34 -72 -34 -47 0 -83 -5 -90 -12 -9 -9 -12 -5 -12 18 l0
29 75 -3 c51 -3 75 -1 75 7 0 17 17 13 24 -5z m90 0 c17 -7 10 -34 -9 -34 -17
0 -28 17 -20 30 7 12 8 12 29 4z m-178 -96 c7 -5 17 -22 24 -39 10 -22 18 -29
34 -27 30 4 34 45 5 50 -29 4 -38 28 -10 28 20 0 51 -34 51 -57 0 -32 -39 -53
-100 -53 -40 0 -60 -4 -60 -12 0 -8 -6 -6 -17 5 -12 12 -14 20 -6 28 8 8 7 19
-1 41 -9 26 -8 32 8 44 20 14 49 11 72 -8z m128 -166 c-12 -2 -25 -13 -29 -25
l-8 -22 -4 23 c-4 20 -10 22 -61 22 -61 0 -89 -11 -78 -29 10 -16 -9 -14 -23
3 -11 13 -6 46 8 46 98 4 146 10 149 18 2 6 17 1 36 -11 31 -21 31 -22 10 -25z
m-26 -107 c-2 -2 -42 -5 -91 -6 -82 -4 -87 -3 -87 16 0 19 6 20 75 17 67 -3
75 -2 75 15 1 13 5 11 16 -10 9 -16 14 -30 12 -32z m88 24 c10 -17 -13 -36
-27 -22 -12 12 -4 33 11 33 5 0 12 -5 16 -11z m-137 -70 c35 -12 51 -35 51
-73 0 -30 -49 -66 -90 -66 -14 0 -40 9 -57 20 -27 16 -33 26 -33 53 0 61 58
91 129 66z"/>
<path d="M17161 6167 c-17 -17 -13 -31 12 -55 30 -29 38 -28 72 8 22 23 26 33
17 42 -16 16 -87 19 -101 5z"/>
<path d="M17198 5952 c-17 -20 -48 -69 -48 -76 0 -6 98 1 110 9 11 7 -10 54
-33 73 -11 9 -17 8 -29 -6z"/>
<path d="M16364 5750 c-60 -24 -16 -77 55 -65 55 9 79 29 65 52 -12 20 -84 28
-120 13z"/>
<path d="M16275 5411 c-8 -39 1 -68 25 -81 16 -9 21 -6 25 13 4 14 5 39 3 58
-2 26 -8 35 -25 37 -17 2 -23 -3 -28 -27z"/>
<path d="M16412 5421 c-8 -5 -12 -17 -10 -27 4 -25 69 -32 88 -10 26 32 -38
63 -78 37z"/>
<path d="M16378 4924 c-49 -26 -29 -64 34 -64 70 0 109 35 76 68 -16 16 -77
14 -110 -4z"/>
<path d="M16297 4613 c-13 -12 -7 -90 8 -103 23 -19 35 -2 35 50 0 34 -4 50
-16 54 -19 7 -19 7 -27 -1z"/>
<path d="M16433 4598 c-30 -14 -29 -36 2 -50 32 -14 75 3 75 31 0 30 -36 39
-77 19z"/>
<path d="M15944 4376 c-45 -34 34 -71 99 -47 30 12 37 45 11 55 -28 11 -90 6
-110 -8z"/>
<path d="M16036 4223 c-9 -10 -7 -51 3 -58 14 -8 41 23 35 40 -6 16 -29 26
-38 18z"/>
<path d="M16377 4147 c-10 -27 23 -49 56 -38 16 6 16 8 2 29 -18 24 -50 29
-58 9z"/>
<path d="M16020 3670 c0 -16 3 -30 6 -30 17 0 84 24 84 30 0 6 -67 30 -84 30
-3 0 -6 -13 -6 -30z"/>
<path d="M16391 3676 c-20 -23 -2 -46 36 -46 36 0 36 6 5 43 -18 21 -26 21
-41 3z"/>
<path d="M16490 3352 c0 -35 9 -45 27 -31 19 16 16 37 -7 49 -18 10 -20 8 -20
-18z"/>
<path d="M15962 3224 c-28 -19 -28 -40 -1 -55 25 -13 93 -6 114 11 20 16 19
46 -1 54 -29 11 -89 6 -112 -10z"/>
<path d="M16492 3073 c3 -31 32 -43 41 -19 6 16 -17 46 -34 46 -6 0 -9 -12 -7
-27z"/>
<path d="M15964 2825 c-11 -27 4 -45 36 -45 34 0 37 6 14 38 -17 25 -42 29
-50 7z"/>
<path d="M15969 2481 c-21 -18 -22 -21 -9 -35 27 -26 97 -25 131 3 20 16 21
21 10 35 -20 23 -102 21 -132 -3z"/>
<path d="M17760 6920 c0 -5 4 -10 10 -10 5 0 7 -6 4 -14 -3 -7 2 -16 11 -20
11 -4 15 -1 13 12 -5 28 -38 56 -38 32z"/>
<path d="M17740 6900 c0 -5 5 -10 11 -10 5 0 7 5 4 10 -3 6 -8 10 -11 10 -2 0
-4 -4 -4 -10z"/>
<path d="M18284 5859 c-4 -7 -3 -9 4 -5 6 4 12 -3 14 -16 3 -19 4 -20 10 -6 9
21 -16 45 -28 27z"/>
<path d="M18323 5818 c-7 -9 -5 -26 8 -53 16 -37 18 -38 18 -13 1 14 4 35 8
45 6 15 4 16 -9 6 -18 -16 -32 -5 -17 14 6 7 9 13 6 13 -2 0 -9 -6 -14 -12z"/>
<path d="M10210 3964 c-24 -24 -82 -63 -129 -87 -83 -44 -85 -46 -103 -98 -10
-30 -31 -81 -47 -114 -24 -49 -71 -208 -71 -240 0 -15 39 27 46 49 4 11 99
112 211 224 197 196 204 205 198 235 -9 41 -32 77 -48 75 -6 0 -32 -20 -57
-44z"/>
<path d="M17359 3074 c-2 -12 3 -199 4 -200 1 -1 12 -5 25 -8 16 -5 22 -3 22
7 0 8 7 17 15 21 11 4 13 12 7 28 -10 25 -4 108 7 121 4 4 26 5 49 1 31 -5 42
-11 42 -25 0 -10 -4 -20 -10 -24 -11 -7 -9 -105 3 -105 11 0 47 39 48 53 0 6
2 22 5 35 5 31 -11 59 -44 76 -33 17 -171 33 -173 20z"/>
<path d="M17200 3050 c0 -10 6 -23 14 -29 16 -13 14 -125 -3 -145 -14 -17 -4
-26 29 -26 43 0 54 22 46 88 -4 31 -9 70 -11 85 -4 36 -10 41 -46 43 -22 1
-29 -3 -29 -16z"/>
<path d="M17116 3017 c-25 -18 -33 -110 -12 -142 17 -26 32 -31 54 -17 10 7 9
16 -3 45 -10 24 -13 51 -9 76 7 43 -4 57 -30 38z"/>
<path d="M17228 2483 c-48 -3 -58 -7 -58 -23 0 -10 15 -30 32 -45 31 -26 36
-27 118 -22 92 5 141 25 159 64 10 22 8 23 -27 23 -20 0 -66 2 -102 4 -36 2
-91 2 -122 -1z"/>
<path d="M12265 190 c3 -5 13 -10 21 -10 8 0 12 5 9 10 -3 6 -13 10 -21 10 -8
0 -12 -4 -9 -10z"/>
</g>
</svg>
